<?xml version="1.0" encoding="utf-8"?>
<!-- Generator: Adobe Illustrator 16.0.0, SVG Export Plug-In . SVG Version: 6.00 Build 0)  -->
<!DOCTYPE svg PUBLIC "-//W3C//DTD SVG 1.1//EN" "http://www.w3.org/Graphics/SVG/1.1/DTD/svg11.dtd">
<svg version="1.1" id="Layer_2" xmlns="http://www.w3.org/2000/svg" xmlns:xlink="http://www.w3.org/1999/xlink" x="0px" y="0px"
	 width="1400px" height="980px" viewBox="0 0 1400 980" enable-background="new 0 0 1400 980" xml:space="preserve">
<g id="Airport">
</g>
<g>
	<linearGradient id="SVGID_1_" gradientUnits="userSpaceOnUse" x1="699.9995" y1="785.9971" x2="699.9995" y2="161.1237">
		<stop  offset="0" style="stop-color:#FFFFFF"/>
		<stop  offset="0.167" style="stop-color:#C4F2FF"/>
		<stop  offset="0.4214" style="stop-color:#70DFFF"/>
		<stop  offset="0.6015" style="stop-color:#3BD4FF"/>
		<stop  offset="0.689" style="stop-color:#27CFFF"/>
		<stop  offset="0.8589" style="stop-color:#27C9FF"/>
		<stop  offset="0.9857" style="stop-color:#27C1FF"/>
	</linearGradient>
	<rect fill="url(#SVGID_1_)" width="1400" height="980"/>
	<polygon fill="#576B0F" points="1400,615.5 1400,666.2 0,666.2 0,565.7 132.8,579 329.7,524.3 363.7,524.3 392.1,524.3 
		460.3,548.6 594.7,459.4 643.9,501.9 664.8,493.8 715.9,536.4 797.3,526.3 840.8,493.8 899.5,562.8 971.4,593.2 1005.5,575 
		1047.2,603.4 1075.6,579 1270.6,643.2 	"/>
	<polygon fill="#688517" points="0,615.5 0,666.2 1400,666.2 1400,565.7 1267.2,579 1070.3,524.3 1036.3,524.3 1007.9,524.3 
		939.7,548.6 805.3,459.4 756.1,501.9 735.2,493.8 684.1,536.4 602.7,526.3 559.2,493.8 500.5,562.8 428.6,593.2 394.5,575 
		352.8,603.4 324.4,579 129.4,643.2 	"/>
	<rect y="857.3" fill="#3DBCCD" width="1400" height="122.7"/>
	<rect y="782.6" fill="#38ABBB" width="1400" height="74.7"/>
	<rect y="708" fill="#339DAB" width="1400" height="74.7"/>
	<path fill="#B2BF18" d="M0,608.4c0,0,168.8,11.9,234.6,6.8c65.8-5.1,313.6-3.4,385-6.8c71.4-3.4,124.6-11,205.8-5.9
		c81.2,5.1,193.2-0.4,257.6,6.1c64.4,6.6,240.6,1.5,317-6.1v37.3c0,0-238.6,50-329.6,50s-467.6,17.8-579.6,5.1
		c-112-12.7-425.6-50-425.6-50L0,608.4z"/>
	<path fill="#9EB020" d="M150.6,642.3c0,0,154-18.6,289.8-10.2c135.8,8.5,274.4,21.6,359.8,26.1c85.4,4.4,88.2,38.3,88.2,38.3V708
		H150.6V642.3z"/>
	<path fill="#8DA21F" d="M1266.2,628.8c0,0-267.2-1.6-303.6,0s-282.8,27.5-337.4,29.4c-54.6,1.9-154,1-264.6,12.9L482.4,708h753.2
		L1266.2,628.8z"/>
	<path fill="#688517" d="M1400,708v-87.9c0,0-204.8,11.6-257.4,20.7c-52.5,9-175.9,27.5-231,31.8c-55.1,4.2-219.6,22.8-232.8,21.7
		c-13.1-1.1-62.1-19.6-107.6-21.2c-45.5-1.6-263.4-24.9-304.5-29.6C225.6,638.6,64.1,611.6,0,608.4V708H1400z"/>
	<ellipse fill="#38ABBB" cx="833.7" cy="884.2" rx="276.8" ry="34.5"/>
	<g>
		<g>
			<path d="M1204.8,522.7c1.9,0,1.9-3,0-3S1202.8,522.7,1204.8,522.7L1204.8,522.7z"/>
		</g>
	</g>
	<path fill="#2E5713" d="M1362.6,590.7c0-11.8-8.3-97.3-18.5-97.3c-10.2,0-18.5,85.5-18.5,97.3c0,10.3,6.2,18.8,14.5,20.9v20.6h7.9
		v-20.6C1356.4,609.5,1362.6,601,1362.6,590.7z"/>
	<path fill="#4C7A2F" d="M1335.9,613.7c0-6.8-4.7-55.7-10.6-55.7c-5.8,0-10.6,48.9-10.6,55.7c0,5.9,3.6,10.8,8.3,12v11.8h4.5v-11.8
		C1332.4,624.4,1335.9,619.5,1335.9,613.7z"/>
	<path fill="#497828" d="M1379.9,597.6c0-9.4-6.6-77.6-14.7-77.6c-8.1,0-14.7,68.1-14.7,77.6c0,8.2,5,15,11.6,16.7v16.4h6.3v-16.4
		C1375,612.6,1379.9,605.8,1379.9,597.6z"/>
	<path fill="#2E5713" d="M246.7,615.1c0-11.8-8.3-97.3-18.5-97.3c-10.2,0-18.5,85.5-18.5,97.3c0,10.3,6.2,18.8,14.5,20.9v20.6h7.9
		V636C240.4,633.9,246.7,625.3,246.7,615.1z"/>
	<path fill="#4C7A2F" d="M220,638c0-6.8-4.7-55.7-10.6-55.7c-5.8,0-10.6,48.9-10.6,55.7c0,5.9,3.6,10.8,8.3,12v11.8h4.5V650
		C216.5,648.8,220,643.9,220,638z"/>
	<path fill="#497828" d="M264,622c0-9.4-6.6-77.6-14.7-77.6c-8.1,0-14.7,68.1-14.7,77.6c0,8.2,5,15,11.6,16.7v16.4h6.3v-16.4
		C259,637,264,630.2,264,622z"/>
	<g>
		<g>
			
				<rect x="686.9" y="646.3" transform="matrix(0.5175 0.8557 -0.8557 0.5175 963.3935 -412.9008)" fill="#F2FAFC" width="321.8" height="3.1"/>
		</g>
		<path fill="#356DC4" d="M930.5,781.4l-2.5,2.8c0,0,16.4,45.6,35.4,68.8h11.8C975.2,853.1,945.7,799.7,930.5,781.4z"/>
		<path fill="#356DC4" d="M556.8,847c0,0-8.9,2.2-8.9,8.6c0,6.4,28.8,26.9,93.2,31.6c64.4,4.7,257,4.7,311.1,4.1
			c54.1-0.6,147.7-3.7,161.6-7.5c15.8-4.4,22.7-22.1,10.5-26.1l-119.8,11.6l-376.1-7.8L556.8,847z"/>
		<path fill="#F2FAFC" d="M553.1,849.7c-1.5,5.8,44.3,24.6,137.4,28.1c93.2,3.5,348.3,0.6,383.8-3.5c35.4-4.1,52.1-5.9,52.7-12.9
			c0.6-7-27.4-13.5-101.4-11.7c-74,1.8-200.5,0-254-0.3C718.2,849.1,556.6,836.2,553.1,849.7z"/>
		<path fill="#E6E6E6" d="M1037.4,861.9c0,4.1-81.5,7.4-181.9,7.4c-100.5,0-181.9-3.3-181.9-7.4c0-4.1,81.5-7.4,181.9-7.4
			C956,854.5,1037.4,857.8,1037.4,861.9z"/>
		<path fill="#D6985B" d="M873,727c0,0-1.1,8.8,1.9,13.6c2.9,4.8,15.7,12.5,20.6,38.7c4.8,26.1,4.8,41.4,10.4,52.6
			c5.6,11.2,11.2,19.7,8,25.1c-3.2,5.3-11.7,4.5-15.7,4.5c-4,0-15,3.2-21.9,2.4l-1.8-5.3l2.4-5.1c0,0,8.8-0.3,12.5-3.7
			c3.7-3.5,3.7-6.1,2.4-13.9c-1.3-7.7-10.9-32.8-21.9-47c-10.9-14.1-12.8-40-12.8-40v-28L873,727z"/>
		<path fill="#D6985B" d="M848.5,560.3c0,0-22.7,21-26.2,23c-3.4,2-3.7-3.4-8.3-2.2c-4.6,1.2-14.4,3.4-13.7,4.9
			c0.7,1.5,2.4,2.9,6.6,2.2c0,0-4.8,2.4-4.5,3.6c0.3,1.2,1.2,1.9,1.4,2.7c0.2,0.8-1.4,2.4-0.6,3.4c0.8,1,2.2,1.7,2.9,2.3
			c0.7,0.6-1.6,1.1-0.5,2c1.1,1,3.7,1.3,4.3,1.8c0.6,0.6-1.8,1-0.4,1.7c1.5,0.8,7.7,0.2,12.6-4.8c4.9-4.9,20.2-16.9,29-20.4
			L848.5,560.3z"/>
		<path fill="#ECAF70" d="M858.5,476.9l5.5,13.8c0,0-18.7,16.5-21.9,41.1c-2.3,17.9,7.9,46.9,10.5,57.9c2.6,11,2.9,23.1,2.9,23.1
			c19.4,4,45.5-7.7,45.5-7.7c-10.2-24.2-2.4-30.6-0.2-65.8c2.2-35.2-11.9-51.2-15.4-58.3c-3.5-7.2-0.2-18.2-0.2-18.2l2.8-7.7
			l0.9-16.3l-10.1-7.7l-21.3-4.6l-10.1,1.5c0,0-3.9,5.1-3.3,17.5l-5.3,12.8h5c0,0-2.9,7.5-0.7,16.6c2.2,9.1,20,0.5,26.3-3.6
			c6.3-4.1,3.9-7.7,3.9-7.7"/>
		<path fill="#D6985B" d="M858.5,476.9l1.9,4.9c0,0,11.3-7.5,12.9-14.3C873.3,467.5,867.6,473.5,858.5,476.9"/>
		<path fill="#B93800" d="M904.6,610.5c-2.3-4.3-4.4-7.5-4.4-7.5s-27.2,11.3-44.6,7.7c0,0-0.9,0.9-2.7,8.6
			C862.7,620.6,888.6,622.6,904.6,610.5z"/>
		<path fill="#ECAF70" d="M862.3,727.2c0,0-2,9.4,0,14.3c2,4.9,12.4,14.3,12.4,36.5c0,22.1-0.3,45.6,2.3,58.3
			c2.6,12.7,6.2,19.5,2.6,24.4c-3.6,4.9-9.8,5.5-12.7,4.2c-2.9-1.3-9.1-3.6-15.3-2.9c-6.2,0.7-15.2,2.6-19.3,1.6
			c-4.1-1-10.3-2.6-10.6-4.6c-0.3-2,2.4-4.6,10.6-3.9c8.3,0.7,22.6-3.3,27.5-8.1c4.9-4.9,2.9-19.5-1.3-31.3
			c-4.2-11.7-9.8-28-13.7-43.6c-3.9-15.6-8.4-28.8-10.1-34.9c-2.4-8.8,3.9-15,3.9-15L862.3,727.2z"/>
		<path fill="#D04001" d="M904.6,610.5c-16,12.1-41.9,10.1-51.8,8.8c-0.5,2.2-1.1,4.9-1.8,8.3c-3.1,15.4-12,37.6-14,54.4
			s-4.4,34.2-4.8,41.4c0,0,16.4,9.2,46.5,9.2c0,0,2.1-8.9,4.8-16.8c2.7-7.9,5.1-10.3,6.5-23.6c1.4-13.3,2-28,8.9-38.3
			c6.8-10.3,11.3-16.4,11.6-25.6C910.7,623.2,907.5,615.9,904.6,610.5z"/>
		<path fill="#D6985B" d="M889.5,505.3c0,0,5.1,15.4-10.5,21.9c-15.5,6.5-37,15.7-37,15.7s-0.9-4.7,0-9.2
			c0.9-4.5,19.6-11.5,19.6-11.5L889.5,505.3z"/>
		<path fill="#ECAF6E" d="M773.1,504.3c-0.1,3.1,21.4,9.9,29.1,13.2c7.7,3.3,13.2,5.7,15.2,6c2,0.3,20.6-12.4,30.9-16.4
			c10.4-4,29.7-14.2,35.9-10c6.2,4.2,10.5,17.9-4.7,25.7c-15.2,7.9-53.5,21.9-60.3,21.9c-6.8,0-22.4-10.4-29.7-14.7
			c-7.3-4.3-17.9-14-21.6-14c-3.7,0-9.7-0.7-13.4-2.8c-3.7-2.2-5.8-5.3-5.8-7c-0.1-3.7,2.5-3.2,3-4.2c0.5-1-0.8-3,0.3-4.5
			c1.2-1.5,2.3-1,3.2-2c0.8-1-1.2-3,0.3-4c1.5-1,3.3,0,4.3,0c1,0,2.5-2.4,5.3-0.4C768.1,492.9,773.2,496.9,773.1,504.3z"/>
		<path fill="#66432F" d="M842.1,425.1c0,0,3.2,7.6,20.5,7.1c0,0,3.4,2.1,3.5,6.7c0.2,4.6-0.9,11.8,1.6,12.2
			c2.5,0.4,5.8-8.7,9.7-8.1c3.9,0.5,6.7,5.8,4.8,12.2c-1.9,6.4-4.6,10.6,1.6,15.4c0,0,8.3-8,13.1-14.9c4.8-6.9,6-22.8-1.4-31.3
			c-7.4-8.5-13.8-10.1-21-10.1c-7.3,0-21.7,4.6-26.7-4.7c0,0-2.2,2.2,0.6,8.2c0,0-1.7,1.4-4.1-0.7c0,0-1.4,2.1,1.5,6.7
			C845.8,423.7,845.6,426.5,842.1,425.1z"/>
	</g>
	<g>
		<path fill="#FAFFFC" d="M1383.7,321.4c-2.9-4.9-8.1-8.2-14.2-8.2c-2.6,0-5.1,0.6-7.3,1.7c-4.5-6-11.6-9.9-19.6-9.9
			c-2.7,0-5.3,0.5-7.8,1.3c-5.5-10.1-16.1-17-28.3-17c-15.3,0-28.1,10.8-31.4,25.2c-2-0.9-4.2-1.3-6.5-1.3c-6,0-11.3,3.3-14.2,8.2
			H1383.7z"/>
		<path fill="#FAFFFC" d="M541.5,294.5c-2.9-4.9-8.1-8.2-14.2-8.2c-2.6,0-5.1,0.6-7.3,1.7c-4.5-6-11.6-9.9-19.6-9.9
			c-2.7,0-5.3,0.5-7.8,1.3c-5.5-10.1-16.1-17-28.3-17c-15.3,0-28.1,10.8-31.4,25.2c-2-0.9-4.2-1.3-6.5-1.3c-6,0-11.3,3.3-14.2,8.2
			H541.5z"/>
		<path fill="#FAFFFC" d="M1032.5,250.9c-2.9-4.9-8.1-8.2-14.2-8.2c-2.6,0-5.1,0.6-7.3,1.7c-4.5-6-11.6-9.9-19.6-9.9
			c-2.7,0-5.3,0.5-7.8,1.3c-5.5-10.1-16.1-17-28.3-17c-15.3,0-28.1,10.8-31.4,25.2c-2-0.9-4.2-1.3-6.5-1.3c-6,0-11.3,3.3-14.2,8.2
			H1032.5z"/>
		<path fill="#FAFFFC" d="M263,234.8c-2.9-4.9-8.1-8.2-14.2-8.2c-2.6,0-5.1,0.6-7.3,1.7c-4.5-6-11.6-9.9-19.6-9.9
			c-2.7,0-5.3,0.5-7.8,1.3c-5.5-10.1-16.1-17-28.3-17c-15.3,0-28.1,10.8-31.4,25.2c-2-0.9-4.2-1.3-6.5-1.3c-6,0-11.3,3.3-14.2,8.2
			H263z"/>
	</g>
</g>
</svg>
