<svg xmlns="http://www.w3.org/2000/svg" viewBox="0 0 334.59 310.73"><defs><style>.cls-1{fill:#43b4cb;}.cls-2{fill:#28343a;}</style></defs><g id="Ebene_2" data-name="Ebene 2"><g id="Capa_1" data-name="Capa 1"><circle class="cls-1" cx="161.87" cy="159.33" r="102.76"/><path class="cls-2" d="M334.55,269.42c-.55-6.91-50.35-19.08-77.17-24.06l-72.55-14.74-.2-1.86s1-.14.07-1.38a1.49,1.49,0,0,0-.42-1.67L165.85,88.41s2.74.52,2-1.55c0,0,1.18-.35,0-1.66,0,0,.9-.49.14-1.11,0,0,1.59-.28,1.66-1,0,0,.69-.62-1.73-.83,0,0,0-2.14-1-2.42a2.5,2.5,0,0,0-2.21-2.28L162.08,49s.14-5.4-.69-6.91c0,0,.42-3-.69-4.15,0,0,.9-3.81-.41-6.51l.06-2.07,1.25,1.18a2.8,2.8,0,0,0,2.14-2.42L163,26.55l.49-4.35a1.72,1.72,0,0,0-1.94-1.32s-.41-1-1.31-1.1a2.11,2.11,0,0,0-2.08-1.39s-1.45-2.69-4.77.29c0,0-3.8.41-3.11,4l1.52,1.1-.62,1.66s-.69.69.62,3.66.69,4.5.69,4.5-.76.76-.13,2.7a16.36,16.36,0,0,1,.62,4.28,3.08,3.08,0,0,0-.07,2.56s-1,5-1,6c0,0-5-1.87-7.54-1.87s-8.23-4.08-8.23-4.08-3.39-2.69-4.63-3a2.93,2.93,0,0,0,.14-3.67c-1.39-2.07,3.32-4.76.21-11.07,0,0,2.21-4.42,1.72-7.73,0,0-.69-.91-2.69-.28,0,0,.48-9.06-3.18-12.18,0,0-1.11-3.24-5.68-3a8.62,8.62,0,0,0-6-.56s-3.43-4-8,0A23.31,23.31,0,0,0,101.85,10s-1.24,2.69-2.9,2.8-.73,3.73-.73,3.73-1.14,3.21-.26,5.39S95,27.11,96.25,31.78s-.73,6.33-.73,10.17-2.07,5.81-1.66,14.62.94,16.18-.72,20-.93,6-.52,7c0,0,1-4.15,2.7-4.67,0,0,0,4.77,2.07,6.23,0,0-2.07-10.8-1.56-14.43,0,0,1.77,10.69,3.32,12.55,0,0-1.13-5.28-.72-6.94a39.53,39.53,0,0,1,2.06,7.27,27.26,27.26,0,0,0-.71-6.23s5.29,13.06,5.5,14.21,1.55,5.91-.32,9.12a33.09,33.09,0,0,0-2.9,8.2s-7.78,8.5-3.63,23,4.46,20.33,4.46,20.33,1.38,13.63,2.35,15.7S105,178.28,102.75,181s-9,13.14-8.44,29.6c0,0-45.15-10.1-58-9.47,0,0-28.14-2.15-34.36,4.63s4.28,13.14,8.16,16,70,43.43,162.5,64.59c0,0,1.46,22.82,20.13,24.28,0,0,11.82,1.24,10.16-17.43,0,0,68.05,6.85,97.65-1.45S335.11,276.34,334.55,269.42ZM129.44,218.87l-23.58-5.46s7.82-23.76,10.3-28.22,5.5-6.22,5.92-9.34,3-13.33,2.52-16.52c0,0,2.77,6.78,2.87,8.33a37,37,0,0,0,1.14,5.09,25.11,25.11,0,0,1-1.14,7.15c-1.24,4.36-2.87,11.1.31,22.44S129.44,218.87,129.44,218.87Zm3.26-164.1c1.72,2.29,17.83,4.63,20.6,5.4a5.44,5.44,0,0,0,4.43-.42l1.17,15.7c-1.1.13-4.49,3.66-4.49,3.66s-3.94,1.38-5.4.83a75.75,75.75,0,0,0-7.46-1.52s-7.89-2.56-7.92-3,.38-.9,1.69-4.49-3.6-13.22-3.6-13.22C132.55,57.12,132.7,54.77,132.7,54.77Zm43.73,172.85a1.2,1.2,0,0,0-.1,1.66l-32.78-7s-6.23-.14-5.26-8.3,4-29.18,3.32-36.1S144.38,171.5,143,160c0,0,.55-27.94-5.67-41.22a68,68,0,0,1-2.7-13.79A34.81,34.81,0,0,0,132.76,95s-1.24-5.64-1-7.74c0,0,9.83.61,13.22,0a6.87,6.87,0,0,1,4.14,0s5.12,1.24,8.78-.31c0,0,1.87-.66,2.91,0l16,139.37S175.71,226.53,176.43,227.62Z"/></g></g></svg>