<svg xmlns="http://www.w3.org/2000/svg" viewBox="0 0 300 1589.68"><defs><style>.cls-1{isolation:isolate;}.cls-2{fill:#00bdd6;}.cls-3{fill:#231f20;opacity:0.1;mix-blend-mode:multiply;}</style></defs><g class="cls-1"><g id="Ebene_2" data-name="Ebene 2"><g id="Feiertagskarte_1" data-name="Feiertagskarte 1"><g id="Text"><path class="cls-2" d="M104.32,1574.48S63.54,1522,30.91,1340.92C-5.46,1139-6.61,652.52,11.34,388.25S102.69,0,150,0,270.72,124,288.66,388.25s16.81,750.76-19.57,952.67c-32.63,181.08-73.41,233.56-73.41,233.56s-8,15.2-45.68,15.2S104.32,1574.48,104.32,1574.48Z"/><path class="cls-3" d="M150,0c47.31,0,120.72,124,138.66,388.25s16.81,750.76-19.57,952.67c-32.63,181.08-73.41,233.56-73.41,233.56s-8,15.2-45.68,15.2Z"/></g></g></g></g></svg>