<?xml version="1.0" encoding="utf-8"?>
<!-- Generator: Adobe Illustrator 19.0.0, SVG Export Plug-In . SVG Version: 6.00 Build 0)  -->
<svg version="1.1" id="Capa_1" xmlns="http://www.w3.org/2000/svg" xmlns:xlink="http://www.w3.org/1999/xlink" x="0px" y="0px"
	 viewBox="0 0 1400 980" style="enable-background:new 0 0 1400 980;" xml:space="preserve">
<style type="text/css">
	.st0{fill:#43B4CB;}
	.st1{fill:#28343A;}
	.st2{fill:#EF7B7B;}
	.st3{fill:#EA5050;}
	.st4{fill:#1A79A8;}
	.st5{fill:#58CCDB;}
	.st6{fill:#CC3333;}
	.st7{fill:#095F91;}
	.st8{fill:#094C6D;}
	.st9{fill:#26A1AA;}
	.st10{fill:#C1C8C9;}
	.st11{fill:#9E9E9E;}
	.st12{fill:#303030;}
	.st13{fill:none;}
	.st14{fill:#F4905D;}
	.st15{fill:#E35B10;}
	.st16{fill:#C44D12;}
</style>
<g>
	<circle class="st0" cx="291.8" cy="280.8" r="102.8"/>
	<g>
		<path class="st1" d="M464.4,390.9c-0.6-6.9-50.3-19.1-77.2-24.1l-72.5-14.7l-0.2-1.9c0,0,1-0.1,0.1-1.4c0,0,0.4-0.9-0.4-1.7
			l-18.4-137.3c0,0,2.7,0.5,2-1.6c0,0,1.2-0.3,0-1.7c0,0,0.9-0.5,0.1-1.1c0,0,1.6-0.3,1.7-1c0,0,0.7-0.6-1.7-0.8c0,0,0-2.1-1-2.4
			c0,0-0.2-2.1-2.2-2.3l-2.7-28.6c0,0,0.1-5.4-0.7-6.9c0,0,0.4-3-0.7-4.2c0,0,0.9-3.8-0.4-6.5l0.1-2.1l1.2,1.2c0,0,1.7-0.2,2.1-2.4
			l-0.8-1.5l0.5-4.4c0,0-0.3-1.5-1.9-1.3c0,0-0.4-1-1.3-1.1c0,0-0.4-1.4-2.1-1.4c0,0-1.5-2.7-4.8,0.3c0,0-3.8,0.4-3.1,4l1.5,1.1
			l-0.6,1.7c0,0-0.7,0.7,0.6,3.7c1.3,3,0.7,4.5,0.7,4.5s-0.8,0.8-0.1,2.7c0.6,1.9,0.6,4.3,0.6,4.3s-0.7,1.4-0.1,2.6c0,0-1,5-1,6
			c0,0-5-1.9-7.5-1.9c-2.5,0-8.2-4.1-8.2-4.1s-3.4-2.7-4.6-3c0,0,1.5-1.6,0.1-3.7c-1.4-2.1,3.3-4.8,0.2-11.1c0,0,2.2-4.4,1.7-7.7
			c0,0-0.7-0.9-2.7-0.3c0,0,0.5-9.1-3.2-12.2c0,0-1.1-3.2-5.7-3c0,0-2.6-1.5-6-0.6c0,0-3.4-4-8,0c-4.6,4.1-6.1,8.2-6.1,8.2
			s-1.2,2.7-2.9,2.8c-1.7,0.1-0.7,3.7-0.7,3.7s-1.1,3.2-0.3,5.4c0.9,2.2-3,5.2-1.7,9.9c1.2,4.7-0.7,6.3-0.7,10.2
			c0,3.8-2.1,5.8-1.7,14.6c0.4,8.8,0.9,16.2-0.7,20c-1.7,3.8-0.9,6-0.5,6.9c0,0,1-4.1,2.7-4.7c0,0,0,4.8,2.1,6.2
			c0,0-2.1-10.8-1.6-14.4c0,0,1.8,10.7,3.3,12.6c0,0-1.1-5.3-0.7-6.9c0,0,1.7,4.5,2.1,7.3c0-1.7-0.2-4.4-0.7-6.2
			c0,0,5.3,13.1,5.5,14.2c0.2,1.1,1.6,5.9-0.3,9.1c-1.9,3.2-2.9,8.2-2.9,8.2s-7.8,8.5-3.6,23c4.1,14.5,4.5,20.3,4.5,20.3
			s1.4,13.6,2.4,15.7c1,2.1-0.3,10.4-2.5,13.1c-2.2,2.8-9,13.1-8.4,29.6c0,0-45.2-10.1-58-9.5c0,0-28.1-2.2-34.4,4.6
			c-6.2,6.8,4.3,13.1,8.2,16c3.9,2.9,70,43.4,162.5,64.6c0,0,1.5,22.8,20.1,24.3c0,0,11.8,1.2,10.2-17.4c0,0,68,6.9,97.6-1.4
			C460,405,465,397.8,464.4,390.9z M259.3,340.4l-23.6-5.5c0,0,7.8-23.8,10.3-28.2c2.5-4.5,5.5-6.2,5.9-9.3c0.4-3.1,3-13.3,2.5-16.5
			c0,0,2.8,6.8,2.9,8.3c0.1,1.6,1.1,5.1,1.1,5.1s0.1,2.8-1.1,7.2c-1.2,4.4-2.9,11.1,0.3,22.4C260.8,335.2,259.3,340.4,259.3,340.4z
			 M262.6,176.3c1.7,2.3,17.8,4.6,20.6,5.4c2.8,0.8,4.4-0.4,4.4-0.4l1.2,15.7c-1.1,0.1-4.5,3.7-4.5,3.7s-3.9,1.4-5.4,0.8
			c-1.5-0.6-7.5-1.5-7.5-1.5s-7.9-2.6-7.9-3c0-0.4,0.4-0.9,1.7-4.5c1.3-3.6-3.6-13.2-3.6-13.2C262.4,178.6,262.6,176.3,262.6,176.3z
			 M306.3,349.1c0,0-0.8,0.6-0.1,1.7l-32.8-7c0,0-6.2-0.1-5.3-8.3c1-8.2,4-29.2,3.3-36.1c-0.7-6.9,2.8-6.4,1.4-17.8
			c0,0,0.6-27.9-5.7-41.2c0,0-2.3-7.3-2.7-13.8c-0.4-6.5-1.9-10.1-1.9-10.1s-1.2-5.6-1-7.7c0,0,9.8,0.6,13.2,0c0,0,1.8-0.7,4.1,0
			c0,0,5.1,1.2,8.8-0.3c0,0,1.9-0.7,2.9,0l16,139.4C306.7,347.8,305.6,348,306.3,349.1z"/>
	</g>
</g>
<g>
	<circle class="st0" cx="1157.9" cy="280.8" r="102.8"/>
	<g>
		<path class="st1" d="M1257.9,398.5c-2.2-8.7-32.6-19-39-21.5l-14.4,4c0,0,0.5-11-0.5-16.9c-0.9-5.9-1.8-22.1-1.8-22.1
			s0.6-14.7-0.9-17.7c-1.5-2.9-3.9-17.7-3.9-17.7s-2.6-10.9-3.1-13.8c-0.6-2.9-1.7-10.5-2.9-14.5c0,0,0.3-3.3,3.1-5
			c0,0-2.1,6,2.9,6.6c5,0.6,1.7-9.7-0.5-11.5l10.9,8.8l1.6-1.4l-12.5-10.6c0,0-1.9-7.5,3.1-13.8c5.1-6.3,36.7-40.4,39.6-54.3
			c2.8-14-8.1-16.4-8.1-16.4s-32.9-13.9-37.3-17.7c-4.4-3.8-18.9-16.4-22.2-25c0,0-0.2-3.9-0.4-4.4c-0.2-0.5-1.2-2.4-1.1-4.3
			c0.1-1.9-5.1-1-5.1,3.5c0.1,4.5-0.7,5.6-0.7,5.6s-0.5-0.8-1.5-1.8c-1-1,1.7-5.1-2.6-7.3c0,0-2.4,0.2-1.7,3.5
			c0.7,3.3-0.6,7.3-0.6,7.3s-9,19.4-18.4,24.4c-9.4,5-18.4,8.8-18.4,8.8l-21.5,10.1c0,0-20.2,3.9-14.5,18.4
			c5.7,14.5,10.1,17.7,10.1,17.7s16,22.6,35.7,35.7c0,0,2.6,9.7,4.9,14.3c0,0-9.8-1.1-13.1,2.5c0,0,1.4,1.5,5.4,0.6l-8.5,7.8l0.8,1
			c0,0,8.4-8.9,13.8-9.5c0,0-9.8,5.4-7.2,8.7c0,0,2.1,4.1,8.6-6.6c0,0-0.3,9.8,1.5,11c0,0,1.1,16.7-0.7,25.4c0,0-5.7,6.3-2.4,19.4
			c3.3,13.2-5.5,28.1-5.5,28.1s-5.9,13.6-5.9,23.4c0,0-2,9.6-0.9,14.8c0,0-39.1-0.1-46.5,0c0,0-7-3.7-11.9-3.7c0,0-4-4.8-6.3,1.1
			c0,0-11.4,0.5-17.5,3.3c-6.1,2.8-18,2.8-19,10.4c-1,7.6-5.9,18.1,30.2,18.1c36.1,0,161.9-6.7,201.3-17.8
			C1252.4,407.6,1260.1,407.2,1257.9,398.5z M1129,278.9c0.6-1.7,3.9-4.2,3.9-4.2C1133.3,276.2,1128.5,280.6,1129,278.9z
			 M1196.8,277.6c-2.3-2.3-0.3-5.2-0.3-5.2S1199.6,280.3,1196.8,277.6z M1164.2,156.3c1.3-1,2.1-5.4,2.1-5.4
			c2.3,6.9-1.1,9.1-1.1,9.1S1162.9,157.3,1164.2,156.3z M1157.5,363.4c-0.9,1-2.8,5.9-3.1,8.4c-0.2,2.5-2.7,3.9-0.5,7.7
			c2.2,3.9-1.7,8.1-1.7,8.1s-2.3,1.6-2.3,2.5c0,0-4,0.6-5.9-0.9c-1.9-1.6-5.2-2.9-5.2-2.9s-0.3-2.9,0-6.1c0.3-3.1,5.5-6.8,7.1-13.3
			c1.6-6.5,8.5-9.4,8.6-13.2c0,0,1.6,2.3,3.1,2.9C1157.5,356.5,1158.4,362.4,1157.5,363.4z M1165.9,231.5c-2.2-1.1-7.7-0.6-7.7-0.6
			s-12.9-9.9-18-14.5c-5.2-4.6-20.3-14.5-20.3-14.5c5,0.2,14.4-12.3,14.4-12.3s11.1-10.9,13.3-13.3c2.2-2.3,7-6.6,12.5-5
			c5.5,1.7,7-3.1,7-3.1c4.6,2,7.2,0.2,9.7,0.4c2.6,0.2,12,8.1,15,13.2c2.9,5.2,13.1,15.6,13.1,15.6s-0.7,3.7-11.7,9.9
			C1182.4,213.6,1168.1,232.6,1165.9,231.5z M1188.6,387.3c0,0-2.4-6.8-3.1-7.5c-0.7-0.7-0.6-4.8-2.2-7.3c0,0-1.6-1.3-1.8-2.4
			c-0.3-1.1-2.7-6.4-3.5-7.6c-0.8-1.2-1.4-5.7-1.4-5.7s1.8,0.9,3.1,0c0,0,4.8,7.3,5.1,8.5c0.4,1.2,0.7,8.2,1.5,9.8
			C1187.1,376.7,1189.4,383.7,1188.6,387.3z"/>
	</g>
</g>
<g>
	<circle class="st0" cx="747.3" cy="280.8" r="102.8"/>
	<g>
		<path class="st1" d="M883.1,392.7c0,0-15.1,0-37.2,6.8c-22.1,6.8-52.2,3.5-52.2,3.5s0.1-1.5-0.4-1.9c0,0-0.2-1.8-3.5-2.1
			c-3.3-0.3-13.7-6.6-13.7-6.6s-1.5-1.5-0.8-10.6c0.7-9.1,3-36.7,2.6-44.2c-0.4-7.5-0.4-19.9-0.4-19.9s-0.3-31.1-3.4-42.2
			c0,0,1-1.6-0.3-3.1c0,0-0.6-4.6-1.4-5.5l12.7-2.7c0,0,0.1,2.1,1.3,2.2c1.1,0.1,2-1.8,2-1.8l2.9,1.3c0,0,2.2,0.8,3.9,0.7
			c0,0-2.1,0.9-1.8,2.5c0.3,1.6,3.5-0.1,3.5-0.1s2.8-1.7,2.8-3.7c0-1.9-0.3-5.1-0.3-5.1s0.6-1.7-0.6-2.5c0,0-0.6-2-2.1-2
			c0,0-1.1-1.6-2.5-1.6l-1.7-0.9c0,0-0.1-3.2-2.6-5.9c-2.4-2.6-0.7-3.5-1.7-5.1c-1-1.6-2.3-10.9-2.3-10.9l-2.6-10.5
			c0,0-0.6-8.8-0.6-16.2c0-7.5-0.6-23.2-14.7-25.4c0,0,2-3.1,0.9-6.8c-1.1-3.7-4.4-8.1-4.4-8.1s-0.8-4.2-0.6-6.5
			c0.3-2.4,1.7-10.9-2-14.1c-3.7-3.2-8.4-4.7-8.4-4.7s-3-1.4-5.1,0l-5.9,1.3c0,0-3.1,0.6-4.2,4.7l-1.5,3.2c0,0-1.7,4.1-1.2,10.3
			c0,0-6.5,6.5-7.6,15.3c0,0,1.2-4.3,3.4-5c0,0-1.6,4.1-0.7,5.8c0,0-3.7,3.1-3.7,5c0,0-12.5,7.1-15.1,10.6
			c-2.6,3.5-6.1,3.7-8.3,15.3c-2.2,11.6-5.9,21.6-5.9,21.6s-2.6-0.3-3,1.6c0,0-0.8,0.3-1,2.3c0,0-3.8,2.7-4.4,6.2l-4.6,3.7
			c0,0-0.1,0.8,0.7,0.9l3.5-3l-0.3,2l3.4-1.2l-6.6,15.5c0,0-2.4,3-2.4,5.1c0,2.1-1.7,2.9-2,4.1c-0.3,1.2-1.6,3.4-1.6,4.1
			c0,0-0.2,1.1,0,1.2c0,0-3.7,3.3-4.5,5.3c-0.8,1.9-2.5,4.6-2.5,4.6s-1.6,2.1-1.6,2.8l-83.4,16.1l-5.5,2.4c0,0-49.3,9.5-54.3,16.9
			c0,0-1.4,4.1,5.2,6.1c6.5,2,19.7,6.9,42.5-13.5l8.2-6.3c0,0,11.6-1.7,14.4-3.1l72.7-14.1c0,0,1,2.5,2.8,1.1c0,0,1,0.7,2,0.5
			c0,0,1.4,0.7,2.6-0.1c0,0,2.8,0.6,4.3-1.4c0,0,2.8,1.3,4.4-1.4l0.9-1.6l26.6-5.3c0,0,0.1,13.5,4.2,20.5c4.1,7,6.1,29.1,4.6,33.9
			c-1.5,4.8-7.6,18.3-4.8,40.2c0,0,2.1,14.1,0.6,18.4c0,0-0.7,2.1-0.7,3.3c0,1.2-0.2,3.2-0.2,3.2l-56.2-4.8c0,0-1.5-2.6-3.2-2.8
			c-1.7-0.2-11.9,0-11.9,0l-8.5,0.4c0,0,1-4.7-2.8-4c-3.8,0.7,1.2,4.2,1.2,4.2s-18.6-0.2-20.7,3.7c-2.1,3.9-1.3,8.9,31.3,14.1
			c32.6,5.3,152.7,7.8,180.7,5.9c28-1.8,52.9-5.3,59-7.9C892.5,404.2,905,392.9,883.1,392.7z M719.4,229.2c0.1,1-1.3,5.2-1.4,6.9
			c-0.1,1.7-3.2,5.5-3.4,8.6c-0.2,3.1-1.2,5-1.2,5s-0.8,1.6,0,2c0.8,0.4,0.2,21.6,0.2,21.6l-25.1,5.4c0,0-0.1-3.7-0.4-4.8
			c0,0,1.2-1.3,1.2-2.1c0,0,0.6-1,0.3-2.2c0,0,3.2-2.1,2.8-5.7c0,0,2.2-2.1,2.1-3.9c0,0,6.9-11,9.4-17.2c0,0,5.6-7.6,5.6-9.1
			c0,0,2.4-0.5,2.4-1.9c0-1.5-0.5-1.8-0.5-1.8s4.4-11.4,6.8-13.6c0,0-0.2,1.9,0.8,3.2c0,0-1.3,1-0.8,1.7c0.5,0.8,1.3,1.5,1.3,1.5
			s-0.8,1.6,0,2.5C720.3,226.1,719.3,228.1,719.4,229.2z M636.7,390.4c-1.5-1.1-1.4-2.5-1.4-2.5
			C636.4,386.7,638.2,391.5,636.7,390.4z M764.2,395.5c-1.1,2.9-0.9,5.7-0.9,5.7l-32.8-1.8c0.3-1.5-1-10.9-1-10.9s-0.1-6.6,1-11.3
			c1.2-4.7,7.1-28.1,7.1-28.1s0.7-7.5,3.6-14.5c2.9-7,2.8-19.8,2.8-20.5c0-0.7,0.8-24.5,0.8-24.5c0.4,2.1,5.9,14.5,5.9,14.5
			s2.3,3.7,3,8c0.7,4.4,3,15.5,4.4,18.6c1.5,3.1,1.7,7,1.7,7c-1,14,2.9,30.3,2.9,30.3l2.2,15.2C765.1,383.3,765.3,392.6,764.2,395.5
			z M770,258.4c0.1-2.4-0.9-3-1.2-5.9c-0.3-2.9-0.7-2-0.8-4.9c-0.1-2.9-1.1-6.4-1.4-8.1c-0.3-1.7,0.2-4.9,0-5.1
			c-0.2-0.2-0.1-2.2-0.1-3.9c0-1.7-0.6-1.9-0.6-3c0-1.2,0.6-2.3,0.6-2.8c0-0.4,0.6-2.1,0.6-2.1c0.7-0.3,1.7-2.4,1.7-2.4
			c2.6,20,11.5,26.9,12,29.2c0.5,2.3,2.8,5.5,2.8,5.5c-0.6,2.7,0.3,5.1,0.3,5.1l-13.2,2.4C770.6,262.4,769.9,260.8,770,258.4z"/>
	</g>
</g>
<g>
	<g>
		<g>
			<g>
				<path class="st2" d="M253.4,846.9l5.4,6.3c0,0,7.8-14.2,15.8-44.7h-8.3C261.2,827.4,256.3,840,253.4,846.9z"/>
				<path class="st3" d="M239.7,846.9c1.8,4.2,2.9,6.3,2.9,6.3l3.9-4.5l-4.2-4.8L239.7,846.9z"/>
				<path class="st4" d="M282.4,698.1c-1.1,19.3-2.8,36.6-4.9,52.2c2.6,1.1,5.3,2,8,2.8c2.3-16.2,4.1-34.5,5.3-54.9
					c-2.8-0.6-5.5-1.3-8.2-2.2C282.4,696.6,282.4,697.4,282.4,698.1z"/>
				<path class="st5" d="M277.1,753c-3.1,22.4-7,40.8-10.9,55.4h8.3c3.8-14.6,7.7-33,10.9-55.4c-2.7-0.8-5.3-1.7-8-2.8
					C277.3,751.1,277.2,752.1,277.1,753z"/>
				<path class="st3" d="M226.9,808.4c5,19,9.8,31.6,12.8,38.5l2.7-3.1l4.2,4.8l4.2-4.8l2.7,3.1c3-6.9,7.9-19.5,12.8-38.5H226.9z"/>
				<g>
					<path class="st0" d="M235.2,550.3c0.7-1,1.3-1.9,1.9-2.8C236.5,548.4,235.8,549.4,235.2,550.3z"/>
					<path class="st0" d="M239.4,544.4c0.6-0.8,1.2-1.5,1.8-2.2C240.6,543,240.1,543.7,239.4,544.4z"/>
					<path class="st0" d="M237.6,546.9c0.6-0.8,1.2-1.6,1.8-2.4C238.8,545.2,238.2,546,237.6,546.9z"/>
					<path class="st0" d="M221.8,578.2c0.6-1.8,1.3-3.5,1.9-5.2C223.1,574.7,222.5,576.4,221.8,578.2z"/>
					<path class="st0" d="M224.2,571.8c0.6-1.6,1.3-3.1,1.9-4.6C225.5,568.7,224.8,570.2,224.2,571.8z"/>
					<path class="st0" d="M226.2,567.1c0.7-1.5,1.3-2.9,2-4.3C227.5,564.2,226.8,565.6,226.2,567.1z"/>
					<path class="st0" d="M228.7,561.7c0.7-1.3,1.3-2.6,2-3.8C230,559.1,229.3,560.4,228.7,561.7z"/>
					<path class="st0" d="M220,583.8c0.6-1.9,1.2-3.7,1.8-5.5C221.2,580.1,220.6,581.9,220,583.8z"/>
					<path class="st0" d="M230.7,557.9c0.7-1.2,1.3-2.4,2-3.5C232,555.4,231.4,556.6,230.7,557.9z"/>
					<path class="st0" d="M233.2,553.5c0.6-1.1,1.3-2.1,1.9-3C234.5,551.4,233.8,552.4,233.2,553.5z"/>
					<path class="st0" d="M241.6,541.8c0.6-0.6,1.1-1.2,1.6-1.8C242.7,540.6,242.2,541.2,241.6,541.8z"/>
					<path class="st0" d="M217.9,591.4c0.6-2.1,1.1-4.1,1.7-6.1C219,587.2,218.4,589.3,217.9,591.4z"/>
					<path class="st0" d="M216.3,597.9c0.5-2.2,1-4.4,1.6-6.5C217.3,593.5,216.8,595.7,216.3,597.9z"/>
					<path class="st6" d="M242.6,853.1l5.4-6.3c-3-6.9-7.9-19.5-12.8-38.5h-8.3C234.9,839,242.6,853.1,242.6,853.1z"/>
					<path class="st0" d="M243.3,540c0.5-0.6,1-1.1,1.5-1.6C244.3,538.9,243.8,539.4,243.3,540z"/>
					<path class="st0" d="M214.5,606.7c0.5-2.4,0.9-4.8,1.4-7.1C215.4,601.9,214.9,604.2,214.5,606.7z"/>
					<path class="st3" d="M226.1,567.2C226.1,567.2,226.2,567.1,226.1,567.2C226.2,567.1,226.1,567.2,226.1,567.2z"/>
					<path class="st3" d="M215.9,599.6c0.1-0.6,0.2-1.1,0.4-1.7C216.1,598.5,216,599,215.9,599.6z"/>
					<path class="st3" d="M219.6,585.3c0.1-0.5,0.3-1,0.4-1.5C219.9,584.3,219.7,584.8,219.6,585.3z"/>
					<path class="st3" d="M217.8,591.4C217.8,591.4,217.9,591.4,217.8,591.4C217.9,591.4,217.8,591.4,217.8,591.4z"/>
					<path class="st3" d="M221.8,578.3C221.8,578.3,221.8,578.2,221.8,578.3C221.8,578.2,221.8,578.3,221.8,578.3z"/>
					<path class="st3" d="M228.2,562.8c0.2-0.4,0.3-0.7,0.5-1C228.5,562.1,228.3,562.4,228.2,562.8z"/>
					<path class="st3" d="M223.7,573c0.2-0.4,0.3-0.8,0.5-1.2C224.1,572.2,223.9,572.6,223.7,573z"/>
					<path class="st3" d="M244.8,538.4c0.1-0.1,0.2-0.2,0.3-0.3C245.1,538.2,245,538.3,244.8,538.4z"/>
					<path class="st3" d="M243.3,540C243.3,540,243.3,540,243.3,540C243.3,540,243.3,540,243.3,540z"/>
					<path class="st3" d="M283.2,652.3c-1-31.5-5.6-55.1-11.4-72.5c-6.7-20.1-15-32.1-21.1-38.8c-8.4,9.3-21.1,28.7-27.9,65.7
						c-0.5,2.7-1,5.6-1.4,8.5c9.7,12.4,18.3,26,21.7,38.6c6.4,24.1,22.2,36.4,39.4,42.1c0.3-5.2,0.5-10.4,0.7-15.8
						C283.5,670.1,283.5,661,283.2,652.3z"/>
					<path class="st3" d="M230.6,557.9C230.7,557.9,230.7,557.9,230.6,557.9C230.7,557.9,230.7,557.9,230.6,557.9z"/>
					<path class="st3" d="M241.2,542.3c0.1-0.2,0.3-0.3,0.4-0.5C241.5,542,241.4,542.1,241.2,542.3z"/>
					<path class="st3" d="M235.1,550.4C235.1,550.4,235.2,550.4,235.1,550.4C235.2,550.4,235.1,550.4,235.1,550.4z"/>
					<path class="st3" d="M232.7,554.3c0.2-0.3,0.3-0.6,0.5-0.8C233,553.8,232.9,554,232.7,554.3z"/>
					<path class="st3" d="M237.1,547.5c0.2-0.2,0.3-0.4,0.5-0.7C237.4,547.1,237.3,547.3,237.1,547.5z"/>
					<path class="st3" d="M239.4,544.5C239.4,544.5,239.4,544.5,239.4,544.5C239.4,544.5,239.4,544.5,239.4,544.5z"/>
					<path class="st7" d="M243,653.8c-3.4-12.7-12-26.3-21.7-38.6c-1.6,10.3-2.7,21.9-3.2,34.8c-0.1,2.5-0.2,5-0.2,7.5
						c-0.1,3.1-0.1,6.3-0.1,9.6c11,13.4,21.3,28.8,25.1,43c5.8,21.7,19.1,33.9,34.4,40.2c2.1-15.5,3.8-32.8,4.9-52.2
						c0-0.7,0.1-1.5,0.1-2.2C265.2,690.2,249.5,677.9,243,653.8z"/>
					<path class="st8" d="M218,657.5c0-2.5,0.1-5.1,0.2-7.5c0.5-13,1.6-24.5,3.2-34.8c-2.3-2.9-4.6-5.7-6.9-8.5
						c-2.3,12.4-4,26.7-4.6,43.3c-0.1,2.5-0.2,5-0.2,7.5c2.7,3,5.5,6.3,8.3,9.6C217.9,663.8,217.9,660.6,218,657.5z"/>
					<path class="st0" d="M243,710.1c-3.8-14.1-14-29.5-25.1-43c0,4.2,0.1,8.5,0.2,13c0.6,18.4,1.8,35.2,3.4,50.5
						c3.4,32.9,8.5,58.6,13.6,77.8h31c3.8-14.6,7.7-33,10.9-55.4c0.1-0.9,0.2-1.9,0.4-2.8C262.2,743.9,248.8,731.8,243,710.1z"/>
					<path class="st9" d="M218.2,680c-0.2-4.5-0.2-8.8-0.2-13c-2.7-3.3-5.5-6.5-8.3-9.6c-0.1,7.1-0.1,14.6,0.2,22.5
						c0.6,18.4,1.8,35.2,3.4,50.5c3.4,32.9,8.5,58.6,13.6,77.8h8.3c-5.1-19.2-10.2-45-13.6-77.8C220,715.3,218.8,698.5,218.2,680z"
						/>
				</g>
			</g>
			<path class="st0" d="M274,661.6c0.2-3.3,0.3-6.6,0.5-10c0.2-5.5,0.2-10.6,0-15.4c-0.5-17.5-3.1-30.6-6.4-40.3
				c-6.8-20.2-16.4-25.7-16.4-25.7s-14.1,8.1-20.1,40.6c6.8,8,13.6,17.5,15.9,26.2C251.6,652.4,262.7,659.2,274,661.6z"/>
		</g>
		<g>
			<g>
				<g>
					<path class="st10" d="M355,798.1v4.4c2.7,1,4.6,3.6,4.6,6.7v27.2c0,0.6-0.1,1.2-0.3,1.8c1.7-1.3,2.9-3.4,2.9-5.7v-27.2
						C362.1,801.3,358.9,798.1,355,798.1z"/>
					<path class="st11" d="M359.5,809.2c0-3.1-1.9-5.6-4.6-6.7v37.2c1.6,0,3.1-0.6,4.3-1.5c0.2-0.6,0.3-1.2,0.3-1.8V809.2z"/>
				</g>
				<g>
					<path class="st12" d="M362.1,805.9v4.5c13.3,3.4,17.9,13.3,19.4,21.4c3.3,3.9,3,7.8,3,7.8S388.9,810.6,362.1,805.9z"/>
					<path class="st1" d="M362.1,810.4v20.9c0,0,3.4-8.3,13.2-3.9c2.8,1.3,4.8,2.8,6.1,4.4C380.1,823.7,375.4,813.8,362.1,810.4z"/>
				</g>
			</g>
			<g>
				<path class="st2" d="M346.6,850.2c0,3.1-1.7,5.7-4.2,7.2c1.2,0.7,2.6,1.2,4.2,1.2c4.6,0,8.3-3.7,8.3-8.3v-76
					c-2.7,6.7-5.6,14.8-8.3,23.1V850.2z"/>
				<path class="st2" d="M335,533.6c0.3,0.7,3.7,10,6.8,27.4c0.7,3.7,1.3,7.8,1.9,12.2c2.4-3.7,4.6-7.8,6.4-12.2
					c-3.1-17.4-6.5-26.7-6.8-27.4c-1.6-4.3-6.4-6.4-10.7-4.8c-0.4,0.2-0.8,0.4-1.2,0.6C333,530.3,334.3,531.7,335,533.6z"/>
				<path class="st4" d="M354.9,615.1c-0.9,1.5-1.8,3-2.8,4.4c-1.5,2.2-3.4,6.1-5.5,11v80.8v15.3c2-4.6,3.8-8.3,5.3-10.5
					c1.1-1.5,2.1-3.1,3-4.8v-90.9C355,618.5,354.9,616.8,354.9,615.1z"/>
				<path class="st5" d="M346.6,726.5v47.7v23.1c2.8-8.3,5.6-16.4,8.3-23.1v-63c-1,1.7-2,3.3-3,4.8
					C350.4,718.2,348.6,721.9,346.6,726.5z"/>
				<path class="st5" d="M346.6,615.1c0,1.7,0.1,3.4,0.1,5.2v10.2c2-4.9,3.9-8.8,5.5-11c1-1.4,1.9-2.9,2.8-4.4
					c-0.3-22.7-2.4-40.8-4.8-54.2c-1.9,4.5-4.1,8.5-6.4,12.2C345.2,584.7,346.4,598.7,346.6,615.1z"/>
				<path class="st3" d="M346.6,850.2v-52.9c-3.1,9.2-6,18.8-8.3,26.9v26c0,3.1,1.7,5.7,4.2,7.2C345,855.9,346.6,853.3,346.6,850.2z
					"/>
				<path class="st3" d="M327.8,539.5c0.1,0.2,6.1,16.5,9,47c2-4.8,3.9-8.7,5.5-10.9c0.5-0.7,1-1.6,1.5-2.4
					c-0.6-4.4-1.2-8.5-1.9-12.2c-3.1-17.4-6.5-26.7-6.8-27.4c-0.7-1.9-2-3.3-3.6-4.2C328,531.4,326.3,535.6,327.8,539.5z"/>
				<path class="st7" d="M338.3,748.7c2.8-8.3,5.7-16.1,8.3-22.2v-15.3v-80.8c-2.6,6.2-5.5,14-8.3,22.3V748.7z"/>
				<path class="st0" d="M338.3,824.2c2.3-8.1,5.2-17.6,8.3-26.9v-23.1v-47.7c-2.6,6.1-5.5,13.9-8.3,22.2V824.2z"/>
				<path class="st0" d="M346.6,615.1c-0.2-16.4-1.4-30.4-2.9-41.9c-0.5,0.8-0.9,1.6-1.5,2.4c-1.5,2.2-3.4,6.1-5.5,10.9
					c0.9,9.8,1.6,21.1,1.6,33.8v32.5c2.8-8.3,5.7-16.1,8.3-22.3v-10.2C346.6,618.5,346.6,616.8,346.6,615.1z"/>
			</g>
		</g>
	</g>
	<g>
		<path class="st13" d="M248.5,538.6c-0.7-0.7-1.3-1.3-1.9-1.8C247.1,537.3,247.8,538,248.5,538.6L248.5,538.6z"/>
		<path class="st0" d="M250.7,541L250.7,541c-0.6-0.7-1.2-1.3-1.8-1.8C249.5,539.7,250.1,540.3,250.7,541z"/>
		<path class="st0" d="M248.5,538.7c0.7,0.7,1.4,1.4,2.2,2.3c-0.6-0.7-1.2-1.3-1.8-1.8C248.8,539,248.7,538.8,248.5,538.7z"/>
		<polygon class="st2" points="248.5,538.6 248.5,538.6 248.5,538.6 		"/>
		<path class="st2" d="M291.5,652.3c-1-31.5-5.6-55.1-11.4-72.5c-9.4-28-21.7-40.2-26.9-44.4c-0.1,0-0.1-0.1-0.1-0.1
			c-0.4-0.4-0.8-0.6-1.2-0.9c0,0-0.1-0.1-0.1-0.1c-0.3-0.2-0.6-0.4-0.7-0.5c0,0,0,0,0,0c-0.2-0.1-0.3-0.2-0.3-0.2v7.4v0c0,0,0,0,0,0
			c6.1,6.7,14.4,18.7,21.1,38.8c5.8,17.4,10.5,41,11.4,72.5c0.3,8.7,0.3,17.9,0,27.7c-0.2,5.4-0.4,10.7-0.7,15.8
			c2.7,0.9,5.4,1.6,8.2,2.2c0.3-5.9,0.6-11.8,0.8-18C291.8,670.1,291.8,661,291.5,652.3z"/>
		<path class="st2" d="M248.5,538.6C248.5,538.7,248.5,538.7,248.5,538.6C248.5,538.7,248.5,538.7,248.5,538.6L248.5,538.6z"/>
		<g>
			<path class="st6" d="M248.5,538.6"/>
			<path class="st6" d="M250.7,541C250.7,541,250.7,541,250.7,541L250.7,541v-7.4c0,0-1.6,0.9-4.2,3.2c0,0,0,0,0,0
				c-0.4,0.4-0.9,0.8-1.3,1.3c-0.1,0.1-0.2,0.2-0.3,0.3c-0.5,0.5-1,1-1.5,1.6c0,0,0,0,0,0c-0.5,0.6-1.1,1.2-1.6,1.8
				c-0.1,0.2-0.3,0.3-0.4,0.5c-0.6,0.7-1.2,1.4-1.8,2.2c0,0,0,0,0,0c-0.6,0.7-1.2,1.6-1.8,2.4c-0.2,0.2-0.3,0.4-0.5,0.7
				c-0.6,0.9-1.3,1.8-1.9,2.8c0,0,0,0.1-0.1,0.1c-0.6,1-1.3,2-1.9,3c-0.2,0.3-0.3,0.6-0.5,0.8c-0.7,1.1-1.3,2.3-2,3.5c0,0,0,0,0,0.1
				c-0.7,1.2-1.3,2.5-2,3.8c-0.2,0.3-0.3,0.7-0.5,1c-0.7,1.4-1.3,2.8-2,4.3c0,0,0,0.1,0,0.1c-0.6,1.5-1.3,3-1.9,4.6
				c-0.2,0.4-0.3,0.8-0.5,1.2c-0.6,1.7-1.3,3.4-1.9,5.2c0,0,0,0.1,0,0.1c-0.6,1.8-1.2,3.6-1.8,5.5c-0.1,0.5-0.3,1-0.4,1.5
				c-0.6,2-1.2,4-1.7,6.1c0,0,0,0,0,0.1c-0.5,2.1-1.1,4.3-1.6,6.5c-0.1,0.6-0.3,1.1-0.4,1.7c-0.5,2.3-1,4.6-1.4,7.1
				c2.3,2.7,4.6,5.6,6.9,8.5c0.4-2.9,0.9-5.8,1.4-8.5C229.6,569.6,242.3,550.2,250.7,541C250.7,541,250.7,541,250.7,541z"/>
		</g>
	</g>
</g>
<g>
	<path class="st5" d="M711.4,785.6h5.1h2.4c2.1,0,3.8-1.7,3.8-3.8c0-2.1-1.7-3.8-3.8-3.8h-2.4v-0.7l2.4,0c2.1,0,3.8-1.7,3.8-3.8
		c0-2.1-1.7-3.8-3.8-3.8h-2.4h-5.1V785.6z"/>
	<path class="st0" d="M711.4,769.8h-5.1h-2.4c-2.1,0-3.8,1.7-3.8,3.8c0,2.1,1.7,3.8,3.8,3.8h2.4v0.7h-2.4c-2.1,0-3.8,1.7-3.8,3.8
		c0,2.1,1.7,3.8,3.8,3.8h2.4h5.1V769.8z"/>
	<rect x="706.3" y="785.6" class="st7" width="5.1" height="13.1"/>
	<rect x="711.4" y="785.6" class="st4" width="5.1" height="13.1"/>
	<path class="st3" d="M706.3,798.6c-5.3,7.9-12.7,20.9-12.7,31.4l0,21.2c0,0,3.7,7.3,17.8,7.3c0,0,0,0,0,0v-59.9H706.3z"/>
	<path class="st2" d="M711.4,798.6v59.9c14.1,0,17.8-7.3,17.8-7.3l0-21.2c0-10.4-7.4-23.4-12.7-31.4H711.4z"/>
	<path class="st4" d="M716.5,523.4h9.1c2.3,0,4.1-1.8,4.1-4.1c0-2.3-1.8-4.1-4.1-4.1l-14.2,0c0,0,0,0,0,0l0,0v8.2H716.5z"/>
	<path class="st7" d="M711.4,515.1C711.4,515.1,711.4,515.1,711.4,515.1l-14.2,0c-2.3,0-4.1,1.8-4.1,4.1c0,2.3,1.8,4.1,4.1,4.1h9.1
		h5.1V515.1z"/>
	<rect x="706.3" y="523.4" class="st11" width="5.1" height="246.4"/>
	<rect x="711.4" y="523.4" class="st10" width="5.1" height="246.4"/>
</g>
<g>
	<g>
		<path class="st7" d="M1126.6,816.4c6.4,24.2,12.5,35.4,12.5,35.4h6.4h6.4c0,0,6.1-11.2,12.5-35.4H1126.6z"/>
		<path class="st7" d="M1158.6,546.5c0,7.3-5.9,13.1-13.1,13.1c-7.2,0-13.1-5.9-13.1-13.1c0-7.3,5.9-13.1,13.1-13.1
			C1152.7,533.3,1158.6,539.2,1158.6,546.5z"/>
	</g>
	<g>
		<path class="st5" d="M1177.6,639.1c0.1,4,0.2,8.1,0.2,12.3l12.3-12.3c-1.1-34.4-6.1-60.2-12.5-79.2l-9.6,9.6
			C1173,587.3,1176.7,610.1,1177.6,639.1z"/>
		<path class="st14" d="M1190.1,639.1l-12.3,12.3c0,5.8,0,11.8-0.3,18.1c-2.2,63.4-10.5,109.4-18.6,140.2h12.5
			c8.1-30.8,16.4-76.9,18.6-140.2C1190.4,658.6,1190.4,648.6,1190.1,639.1z"/>
		<g>
			<path class="st7" d="M1114.5,556.5c0.2-0.4,0.3-0.9,0.5-1.3C1114.8,555.6,1114.7,556,1114.5,556.5z"/>
			<path class="st7" d="M1116.5,551.1c0.1-0.2,0.1-0.3,0.2-0.5C1116.7,550.8,1116.6,550.9,1116.5,551.1z"/>
			<path class="st7" d="M1111.1,567.2c0-0.1,0.1-0.3,0.1-0.4C1111.1,566.9,1111.1,567,1111.1,567.2z"/>
			<path class="st7" d="M1118.5,546.3c0.1-0.3,0.3-0.6,0.4-1C1118.8,545.7,1118.6,546,1118.5,546.3z"/>
			<path class="st7" d="M1120.3,542.3c0.2-0.4,0.3-0.7,0.5-1.1C1120.7,541.6,1120.5,542,1120.3,542.3z"/>
			<path class="st7" d="M1124.5,534.3c0.2-0.3,0.3-0.5,0.5-0.8C1124.8,533.8,1124.6,534,1124.5,534.3z"/>
			<path class="st7" d="M1126.3,531.2c0.2-0.3,0.4-0.6,0.6-0.9C1126.7,530.6,1126.5,530.9,1126.3,531.2z"/>
			<path class="st7" d="M1122.4,538.2c0.1-0.2,0.2-0.4,0.3-0.5C1122.6,537.8,1122.5,538,1122.4,538.2z"/>
			<path class="st7" d="M1101.9,619.5c0.1-0.8,0.1-1.6,0.2-2.4C1102,617.9,1102,618.7,1101.9,619.5z"/>
			<path class="st7" d="M1101.3,628c0-0.8,0.1-1.7,0.2-2.5C1101.4,626.4,1101.3,627.2,1101.3,628z"/>
			<path class="st7" d="M1102.8,609.7c0-0.1,0-0.2,0-0.3C1102.9,609.5,1102.9,609.6,1102.8,609.7z"/>
			<path class="st7" d="M1128.3,528.1c0.1-0.2,0.3-0.4,0.4-0.6C1128.5,527.7,1128.4,527.9,1128.3,528.1z"/>
			<path class="st7" d="M1104.9,594.8c0.1-0.7,0.2-1.3,0.3-2C1105.1,593.4,1105,594.1,1104.9,594.8z"/>
			<path class="st7" d="M1103.8,602c0.1-0.7,0.2-1.3,0.3-2C1104,600.7,1103.9,601.3,1103.8,602z"/>
			<path class="st7" d="M1107.8,579.9c0.1-0.5,0.2-1.1,0.4-1.6C1108,578.9,1107.9,579.4,1107.8,579.9z"/>
			<path class="st7" d="M1106.4,586.6c0-0.1,0.1-0.3,0.1-0.4C1106.4,586.4,1106.4,586.5,1106.4,586.6z"/>
			<path class="st7" d="M1109.2,573.8c0.1-0.5,0.3-1.1,0.4-1.6C1109.5,572.8,1109.4,573.3,1109.2,573.8z"/>
			<path class="st7" d="M1112.8,561.5c0.1-0.4,0.3-0.8,0.4-1.2C1113.1,560.6,1112.9,561,1112.8,561.5z"/>
			<path class="st7" d="M1133.8,520.5c0.2-0.2,0.4-0.4,0.5-0.7C1134.1,520.1,1133.9,520.3,1133.8,520.5z"/>
			<path class="st7" d="M1132,522.7c0.2-0.3,0.4-0.6,0.6-0.8C1132.5,522.2,1132.3,522.4,1132,522.7z"/>
			<path class="st7" d="M1137.2,516.6c0.2-0.3,0.5-0.5,0.7-0.7C1137.6,516.1,1137.4,516.4,1137.2,516.6z"/>
			<path class="st7" d="M1130.3,525c0.2-0.3,0.4-0.5,0.5-0.7C1130.7,524.5,1130.5,524.8,1130.3,525z"/>
			<path class="st7" d="M1135.7,518.2c0.2-0.2,0.4-0.5,0.6-0.7C1136.2,517.7,1135.9,517.9,1135.7,518.2z"/>
			<path class="st15" d="M1168,569.5c-0.9-3.3-1.9-6.6-2.9-9.6c-6.2-18.5-13.5-30.6-19.7-38.4c-11.5,14.5-27.3,44.5-31.4,101.9
				L1168,569.5z"/>
			<path class="st15" d="M1106.4,586.2c0.4-2.2,0.9-4.2,1.3-6.3C1107.3,582,1106.9,584.1,1106.4,586.2z"/>
			<path class="st15" d="M1111.2,566.7c0.5-1.8,1.1-3.6,1.6-5.3C1112.3,563.2,1111.7,564.9,1111.2,566.7z"/>
			<path class="st15" d="M1109.7,572.2c0.5-1.7,0.9-3.4,1.4-5.1C1110.6,568.8,1110.1,570.5,1109.7,572.2z"/>
			<path class="st15" d="M1108.1,578.3c0.4-1.5,0.7-3,1.1-4.5C1108.9,575.3,1108.5,576.8,1108.1,578.3z"/>
			<path class="st15" d="M1137.9,515.9c0.2-0.2,0.4-0.4,0.6-0.6C1138.3,515.4,1138.1,515.6,1137.9,515.9z"/>
			<path class="st15" d="M1105.2,592.8c0.4-2.1,0.7-4.1,1.1-6.1C1106,588.6,1105.6,590.7,1105.2,592.8z"/>
			<path class="st15" d="M1102.1,617.1c0.2-2.5,0.5-5,0.7-7.4C1102.6,612.1,1102.3,614.6,1102.1,617.1z"/>
			<path class="st15" d="M1100.9,636.6c0.1-2.9,0.3-5.8,0.4-8.6C1101.1,630.8,1101,633.7,1100.9,636.6z"/>
			<path class="st15" d="M1128.7,527.5c0.6-0.9,1.1-1.7,1.7-2.5C1129.8,525.8,1129.2,526.6,1128.7,527.5z"/>
			<path class="st15" d="M1104.1,600c0.3-1.8,0.5-3.5,0.8-5.2C1104.6,596.5,1104.4,598.2,1104.1,600z"/>
			<path class="st15" d="M1102.9,609.4c0.3-2.5,0.6-5,0.9-7.4C1103.5,604.4,1103.2,606.9,1102.9,609.4z"/>
			<path class="st15" d="M1101.5,625.5c0.1-2,0.3-4,0.4-6C1101.7,621.5,1101.6,623.5,1101.5,625.5z"/>
			<path class="st15" d="M1122.7,537.6c0.6-1.2,1.2-2.3,1.8-3.3C1123.9,535.4,1123.3,536.5,1122.7,537.6z"/>
			<path class="st15" d="M1124.9,533.5c0.5-0.8,0.9-1.6,1.4-2.3C1125.9,531.9,1125.4,532.7,1124.9,533.5z"/>
			<path class="st15" d="M1132.7,521.9c0.4-0.5,0.7-0.9,1.1-1.4C1133.4,521,1133,521.4,1132.7,521.9z"/>
			<path class="st15" d="M1126.9,530.3c0.5-0.7,0.9-1.5,1.4-2.2C1127.8,528.8,1127.3,529.5,1126.9,530.3z"/>
			<path class="st15" d="M1130.9,524.3c0.4-0.5,0.8-1.1,1.2-1.6C1131.7,523.2,1131.3,523.7,1130.9,524.3z"/>
			<path class="st15" d="M1113.2,560.2c0.4-1.3,0.9-2.6,1.3-3.8C1114.1,557.7,1113.6,558.9,1113.2,560.2z"/>
			<path class="st15" d="M1120.9,541.2c0.5-1.1,1-2.1,1.5-3.1C1121.9,539.2,1121.4,540.2,1120.9,541.2z"/>
			<path class="st15" d="M1115,555.1c0.5-1.4,1-2.7,1.5-4.1C1116,552.4,1115.5,553.7,1115,555.1z"/>
			<path class="st15" d="M1136.4,517.5c0.3-0.3,0.5-0.6,0.8-0.9C1136.9,516.9,1136.6,517.2,1136.4,517.5z"/>
			<path class="st15" d="M1116.7,550.6c0.6-1.5,1.2-2.9,1.8-4.3C1117.9,547.7,1117.3,549.1,1116.7,550.6z"/>
			<path class="st15" d="M1134.3,519.9c0.5-0.6,1-1.1,1.4-1.7C1135.3,518.7,1134.8,519.3,1134.3,519.9z"/>
			<path class="st15" d="M1118.9,545.4c0.5-1,0.9-2.1,1.4-3C1119.9,543.3,1119.4,544.3,1118.9,545.4z"/>
			<path class="st0" d="M1113.3,636.6c-0.4,10.2-0.4,21.1,0,32.8c0.5,15.7,1.5,30.2,2.6,43.8l61.9-61.9c0-4.2-0.1-8.3-0.2-12.3
				c-0.9-29-4.7-51.8-9.6-69.7l-53.9,53.9C1113.8,627.7,1113.5,632,1113.3,636.6z"/>
			<path class="st9" d="M1113.3,669.4c-0.4-11.8-0.4-22.7,0-32.8c0.2-4.6,0.4-8.9,0.7-13.2l-13.2,13.2c-0.4,10.2-0.4,21.1,0,32.8
				c0.7,20.1,2,38.5,3.7,55.2l11.4-11.4C1114.8,699.7,1113.8,685.1,1113.3,669.4z"/>
			<path class="st0" d="M1145.4,850.6c3.3-7.7,8.4-21.2,13.6-41h-27.1C1137.1,829.5,1142.2,842.9,1145.4,850.6z"/>
			<path class="st15" d="M1116,713.2c0.3,3.9,0.7,7.7,1.1,11.4c3.7,35.9,9.3,64,14.8,85h27.1c8.1-30.8,16.4-76.9,18.6-140.2
				c0.2-6.3,0.3-12.3,0.3-18.1L1116,713.2z"/>
			<path class="st16" d="M1117,724.6c-0.4-3.7-0.7-7.5-1.1-11.4l-11.4,11.4c3.7,35.9,9.3,64,14.8,85h12.5
				C1126.4,788.6,1120.7,760.5,1117,724.6z"/>
		</g>
	</g>
	<g>
		<path class="st3" d="M1078.7,757.1l-3.6-3.6l-1.7-1.7c-1.5-1.5-3.9-1.5-5.3,0c-1.5,1.5-1.5,3.9,0,5.3l1.7,1.7l-0.5,0.5l-1.7-1.7
			c-1.5-1.5-3.9-1.5-5.3,0c-1.5,1.5-1.5,3.9,0,5.3l1.7,1.7l3.6,3.6L1078.7,757.1z"/>
		<path class="st2" d="M1067.6,768.3l3.7,3.7l1.7,1.7c1.5,1.5,3.9,1.5,5.3,0c1.5-1.5,1.5-3.9,0-5.3l-1.7-1.7l0.5-0.5l1.7,1.7
			c1.5,1.5,3.9,1.5,5.3,0c1.5-1.5,1.5-3.9,0-5.3l-1.7-1.7l-3.7-3.7L1067.6,768.3z"/>
		
			<rect x="1062.2" y="768.2" transform="matrix(-0.7071 -0.7071 0.7071 -0.7071 1269.8751 2075.551)" class="st4" width="5.2" height="13.1"/>
		
			<rect x="1058.6" y="764.6" transform="matrix(0.7071 0.7071 -0.7071 0.7071 856.1595 -524.5112)" class="st7" width="5.1" height="13.1"/>
		<path class="st15" d="M1054.8,774c-9.3,1.9-23.7,5.8-31.1,13.2l-15,15c0,0-2.6,7.7,7.4,17.7l42.3-42.3L1054.8,774z"/>
		<path class="st14" d="M1016,819.9C1016,819.9,1016,819.9,1016,819.9c10.1,10.1,17.8,7.5,17.8,7.5l15-15
			c7.4-7.4,11.3-21.8,13.2-31.1l-3.7-3.7L1016,819.9z"/>
		<path class="st7" d="M1258.8,577.1l-10-10c-1.6-1.6-4.2-1.6-5.8,0c-1.6,1.6-1.6,4.2,0,5.8l6.4,6.4l3.6,3.6L1258.8,577.1z"/>
		<path class="st4" d="M1268.9,587.2l-10-10c0,0,0,0,0,0c0,0,0,0,0,0l-0.1-0.1l-5.8,5.8l3.7,3.7l6.4,6.4c1.6,1.6,4.2,1.6,5.8,0
			C1270.5,591.4,1270.5,588.8,1268.9,587.2z"/>
		
			<rect x="1165.1" y="548.7" transform="matrix(-0.7071 -0.7071 0.7071 -0.7071 1518.3835 1972.6298)" class="st12" width="5.2" height="246.4"/>
		
			<rect x="1161.5" y="545" transform="matrix(0.7071 0.7071 -0.7071 0.7071 813.4028 -627.3828)" class="st1" width="5.1" height="246.4"/>
	</g>
	<g>
		<g>
			<path class="st13" d="M1142.3,857.5C1142.3,857.5,1142.3,857.4,1142.3,857.5C1142.3,857.4,1142.3,857.5,1142.3,857.5z"/>
			<path class="st5" d="M1159,809.7c-5.2,19.8-10.3,33.2-13.6,41c0,0,0,0,0,0v0v7.9h0h3.7h5.1c0,0,8.5-15.5,17.2-48.9H1159z"/>
			<path class="st5" d="M1145.4,850.6C1145.4,850.6,1145.4,850.6,1145.4,850.6C1145.4,850.6,1145.4,850.6,1145.4,850.6L1145.4,850.6
				z"/>
			<path class="st9" d="M1143.3,855.4c-0.2,0.3-0.3,0.6-0.4,0.9C1143,856.1,1143.1,855.8,1143.3,855.4z"/>
			<path class="st9" d="M1145.4,850.6L1145.4,850.6c-0.8,1.8-1.4,3.3-2,4.5C1144,853.9,1144.7,852.4,1145.4,850.6z"/>
			<path class="st9" d="M1142.3,857.5c-0.1,0.3-0.2,0.4-0.3,0.6c0.2-0.3,0.4-0.8,0.8-1.5C1142.6,856.9,1142.5,857.2,1142.3,857.5
				C1142.3,857.4,1142.3,857.5,1142.3,857.5z"/>
			<path class="st9" d="M1142.3,857.4c0.1-0.2,0.3-0.5,0.4-0.9c0-0.1,0.1-0.1,0.1-0.2c0.1-0.3,0.3-0.6,0.4-0.9
				c0-0.1,0.1-0.2,0.2-0.4c0.6-1.2,1.2-2.7,2-4.5l0,0C1144,853.9,1143,856.2,1142.3,857.4z"/>
			<path class="st9" d="M1141.8,858.4c0-0.1,0.1-0.2,0.2-0.3c0.1-0.2,0.2-0.4,0.3-0.6C1142.1,857.9,1141.9,858.2,1141.8,858.4z"/>
			<path class="st9" d="M1145.4,850.6c-3.3-7.7-8.4-21.2-13.6-41h-12.5c8.8,33.4,17.2,48.9,17.2,48.9h5.1h3.7L1145.4,850.6
				c0,0.1-0.1,0.2-0.1,0.2C1145.4,850.8,1145.4,850.7,1145.4,850.6C1145.4,850.6,1145.4,850.6,1145.4,850.6z M1141.9,858.3
				c0.1-0.2,0.2-0.4,0.4-0.8c0,0,0,0,0-0.1c-0.1,0.3-0.2,0.5-0.3,0.7C1141.9,858.2,1141.9,858.2,1141.9,858.3z M1142.4,857.3
				c0.1-0.3,0.3-0.6,0.4-0.9c0,0.1-0.1,0.1-0.1,0.2C1142.6,856.8,1142.5,857.1,1142.4,857.3z M1143.3,855.4
				c-0.1,0.2-0.2,0.4-0.3,0.7c0.1-0.3,0.3-0.7,0.5-1c0,0,0,0,0,0C1143.4,855.2,1143.3,855.3,1143.3,855.4z M1144.2,853.4
				c0.1-0.1,0.1-0.2,0.2-0.4C1144.3,853.2,1144.3,853.3,1144.2,853.4z"/>
			<path class="st9" d="M1143.5,855.1c-0.1,0.1-0.1,0.2-0.2,0.4C1143.3,855.3,1143.4,855.2,1143.5,855.1z"/>
			<path class="st9" d="M1142.9,856.3c0,0.1-0.1,0.1-0.1,0.2C1142.8,856.5,1142.8,856.4,1142.9,856.3z"/>
			<path class="st9" d="M1141.8,858.4c0,0.1-0.1,0.1-0.1,0.1s0.1-0.2,0.2-0.4C1141.9,858.2,1141.9,858.3,1141.8,858.4z"/>
		</g>
		<path class="st7" d="M1138.5,515.2c0.2-0.2,0.5-0.5,0.7-0.7c0,0,0,0,0,0C1139,514.8,1138.7,515,1138.5,515.2z"/>
		<g>
			<path class="st13" d="M1139.2,514.5L1139.2,514.5C1139.2,514.5,1139.2,514.5,1139.2,514.5c0.2,0.2,0.5,0.5,0.7,0.7
				C1139.7,515,1139.4,514.7,1139.2,514.5z"/>
			<path class="st13" d="M1142.1,517.6c1,1.2,2.1,2.5,3.3,3.9l0,0C1144.3,520.1,1143.2,518.8,1142.1,517.6z"/>
			<path class="st14" d="M1145.4,509.4c0,0,0.2,0.1,0.4,0.3C1145.6,509.6,1145.4,509.4,1145.4,509.4z"/>
			<polygon class="st14" points="1145.4,521.5 1145.4,521.5 1145.4,521.5 			"/>
			<path class="st14" d="M1145.9,509.7c0.9,0.6,3,2.1,5.8,4.8C1148.8,511.8,1146.8,510.3,1145.9,509.7z"/>
			<path class="st14" d="M1145.4,509.5c-0.1,0-2.5,1.5-6.2,5.1c0,0,0,0,0,0C1142.9,511,1145.3,509.5,1145.4,509.5z"/>
			<polygon class="st16" points="1145.4,521.5 1145.4,521.5 1145.4,521.5 			"/>
			<path class="st7" d="M1145.9,509.7C1145.9,509.7,1145.9,509.7,1145.9,509.7C1145.9,509.7,1145.9,509.7,1145.9,509.7z"/>
			<polygon class="st7" points="1151.7,514.5 1151.7,514.5 1151.7,514.5 			"/>
			<polygon class="st7" points="1145.4,509.4 1145.4,509.5 1145.4,509.5 			"/>
			<path class="st14" d="M1151.7,514.5L1151.7,514.5c-2.8-2.7-4.9-4.2-5.8-4.8c0,0,0,0-0.1,0c-0.2-0.2-0.4-0.3-0.4-0.3l0,0v12.1
				c6.1,7.8,13.5,19.9,19.7,38.4c1,3,2,6.2,2.9,9.6l9.6-9.6C1169.1,534.5,1158.3,521,1151.7,514.5z"/>
			<polygon class="st7" points="1145.4,509.5 1145.4,509.5 1145.4,509.5 			"/>
			<path class="st7" d="M1139.2,514.5L1139.2,514.5c0.2,0.2,0.5,0.5,0.7,0.7c0.7,0.7,1.5,1.5,2.3,2.3c1,1.2,2.1,2.5,3.3,3.9
				C1143.1,518.6,1141,516.3,1139.2,514.5z"/>
			<path class="st16" d="M1145.4,509.5c-0.1,0.1-2.5,1.5-6.2,5.1c0.2,0.1,0.3,0.3,0.5,0.5c-0.2-0.2-0.3-0.4-0.5-0.5
				c-0.2,0.2-0.5,0.5-0.7,0.7c-0.2,0.2-0.4,0.4-0.6,0.6c-0.2,0.2-0.5,0.5-0.7,0.7c-0.3,0.3-0.5,0.6-0.8,0.9
				c-0.2,0.2-0.4,0.5-0.6,0.7c-0.5,0.5-0.9,1.1-1.4,1.7c-0.2,0.2-0.4,0.4-0.5,0.7c-0.4,0.4-0.7,0.9-1.1,1.4
				c-0.2,0.3-0.4,0.5-0.6,0.8c-0.4,0.5-0.8,1-1.2,1.6c-0.2,0.2-0.4,0.5-0.5,0.7c-0.6,0.8-1.1,1.6-1.7,2.5c-0.1,0.2-0.3,0.4-0.4,0.6
				c-0.5,0.7-0.9,1.4-1.4,2.2c-0.2,0.3-0.4,0.6-0.6,0.9c-0.5,0.7-0.9,1.5-1.4,2.3c-0.2,0.3-0.3,0.5-0.5,0.8
				c-0.6,1.1-1.2,2.2-1.8,3.3c-0.1,0.2-0.2,0.4-0.3,0.5c-0.5,1-1,2-1.5,3.1c-0.2,0.4-0.3,0.7-0.5,1.1c-0.5,1-0.9,2-1.4,3
				c-0.1,0.3-0.3,0.6-0.4,1c-0.6,1.4-1.2,2.8-1.8,4.3c-0.1,0.1-0.1,0.3-0.2,0.5c-0.5,1.3-1,2.7-1.5,4.1c-0.2,0.4-0.3,0.9-0.5,1.3
				c-0.4,1.2-0.9,2.5-1.3,3.8c-0.1,0.4-0.3,0.8-0.4,1.2c-0.6,1.7-1.1,3.5-1.6,5.3c0,0.1-0.1,0.3-0.1,0.4c-0.5,1.6-0.9,3.3-1.4,5.1
				c-0.1,0.5-0.3,1.1-0.4,1.6c-0.4,1.5-0.7,3-1.1,4.5c-0.1,0.5-0.2,1.1-0.4,1.6c-0.5,2-0.9,4.1-1.3,6.3c0,0.1-0.1,0.3-0.1,0.4
				c-0.4,2-0.8,4.1-1.1,6.1c-0.1,0.7-0.2,1.3-0.3,2c-0.3,1.7-0.5,3.4-0.8,5.2c-0.1,0.7-0.2,1.3-0.3,2c-0.3,2.4-0.6,4.9-0.9,7.4
				c0,0.1,0,0.2,0,0.3c-0.3,2.4-0.5,4.9-0.7,7.4c-0.1,0.8-0.1,1.6-0.2,2.4c-0.2,2-0.3,4-0.4,6c-0.1,0.8-0.1,1.6-0.2,2.5
				c-0.2,2.8-0.3,5.7-0.4,8.6l13.2-13.2c4.1-57.4,19.9-87.4,31.4-101.9L1145.4,509.5L1145.4,509.5z"/>
		</g>
	</g>
</g>
</svg>
