<?xml version="1.0" encoding="utf-8"?>
<!-- Generator: Adobe Illustrator 18.0.0, SVG Export Plug-In . SVG Version: 6.00 Build 0)  -->
<!DOCTYPE svg PUBLIC "-//W3C//DTD SVG 1.1//EN" "http://www.w3.org/Graphics/SVG/1.1/DTD/svg11.dtd">
<svg version="1.1" id="Layer_1" xmlns="http://www.w3.org/2000/svg" xmlns:xlink="http://www.w3.org/1999/xlink" x="0px" y="0px"
	 viewBox="0 0 1400 980" enable-background="new 0 0 1400 980" xml:space="preserve">
<g>
	<g>
		<g>
			<g>
				<path fill="#59B09E" d="M156,98.6l326.8,326.8c0,0-7.4,12.9-24.2,12.9c0,0-47,0-172.7-125.4C171.4,198.8,149.8,147.1,156,98.6z"
					/>
				<path fill="#00A79D" d="M156,98.6l326.8,326.8c0,0,12.9-7.4,12.9-24.2c0,0,0-47-125.4-172.7C256.2,114,204.5,92.4,156,98.6z"/>
			</g>
			<path fill="#5A5B5D" d="M358.9,363.1c0,0-23.8-34.2-10.1-71.7L234.3,176.9c0,0-4.7,44,17,83.6
				C251.3,260.5,299.2,312.4,358.9,363.1z"/>
			<path fill="#414042" d="M420.5,301.5c0,0-34.2-23.8-71.7-10.1L234.3,176.9c0,0,44-4.7,83.6,17C317.9,194,369.8,241.8,420.5,301.5
				z"/>
			<g>
				<g>
					<g>
						<path fill="#5A5B5D" d="M404.2,399.2l-8.2-60.6l-6.3-6.3l2.6,58.8C396.7,394.3,400.9,397.1,404.2,399.2z"/>
					</g>
					<g>
						<path fill="#5A5B5D" d="M410.8,403c3.7,1.3,7.5,2,11.3,2.1l-6.3-46.8l-8.3-8.3l2.3,52.5C410.4,402.8,410.8,403,410.8,403z"/>
					</g>
					<g>
						<path fill="#5A5B5D" d="M454.1,396.7l-27-27l1.6,35.2C442.5,403.4,454.1,396.7,454.1,396.7z"/>
					</g>
					<g>
						<path fill="#5A5B5D" d="M378.3,320.9l-17.1-17.1c-16.4,22.3,17.3,75.3,17.3,75.3c2.7,2.8,5.7,5.5,8.8,8L378.3,320.9z"/>
					</g>
				</g>
			</g>
			<path fill="#414042" d="M427.2,369.7l-11.5-11.4l46.9,6.3c-0.1-3.7-0.8-7.5-2.1-11.2c0,0-0.2-0.4-0.6-1.1l-52.4-2.3L396,338.5
				l60.5,8.2c-2.1-3.3-4.8-7.5-8.1-11.9l-58.7-2.6l-11.5-11.4l66.2,8.9c-2.5-3-5.2-6-8-8.7c0,0-53-33.7-75.3-17.3l93,93
				c0,0,6.7-11.7,8.1-25.5L427.2,369.7z"/>
		</g>
		<g>
			<g>
				<circle fill="#767A77" cx="175.2" cy="156" r="1.5"/>
				<circle fill="#0C090C" cx="175.2" cy="156" r="1.2"/>
			</g>
			<g>
				<circle fill="#767A77" cx="213.2" cy="117.9" r="1.5"/>
				<circle fill="#0C090C" cx="213.2" cy="117.9" r="1.2"/>
			</g>
			<g>
				<circle fill="#767A77" cx="214.2" cy="194.9" r="1.5"/>
				<circle fill="#0C090C" cx="214.2" cy="194.9" r="1.2"/>
			</g>
			<g>
				<circle fill="#767A77" cx="252.2" cy="156.9" r="1.5"/>
				<circle fill="#0C090C" cx="252.2" cy="156.9" r="1.2"/>
			</g>
			<g>
				<path fill="#252426" d="M214.8,195.3c-0.2,0.2-0.4,0.2-0.7,0.2c-0.3-0.1-0.5-0.5-0.4-0.8l17.9-56.3l-56.1,18.2
					c-0.3,0.1-0.7-0.1-0.8-0.4c-0.1-0.3,0.1-0.7,0.4-0.8l57.3-18.6c0.2-0.1,0.5,0,0.7,0.2s0.2,0.4,0.2,0.7L215,195.1
					C214.9,195.2,214.9,195.3,214.8,195.3z"/>
			</g>
			<g>
				<path fill="#252426" d="M252.7,157.4c-0.1,0.1-0.2,0.1-0.3,0.2l-57.5,18.3c-0.2,0.1-0.5,0-0.7-0.2c-0.2-0.2-0.2-0.4-0.2-0.7
					l18.6-57.3c0.1-0.3,0.5-0.5,0.8-0.4c0.3,0.1,0.5,0.5,0.4,0.8l-18.2,56.1l56.3-17.9c0.3-0.1,0.7,0.1,0.8,0.4
					C253,157,252.9,157.3,252.7,157.4z"/>
			</g>
			<g>
				<path fill="#767A77" d="M195.9,170.6l-5.1,2.9c-0.7,0.4-0.8,1.3-0.3,1.8l4.2,4.2c0.5,0.5,1.4,0.4,1.8-0.3l2.9-5.1
					C200.7,171.8,198.2,169.3,195.9,170.6z"/>
				<circle fill="#3A3B3A" cx="194.7" cy="175.2" r="2.3"/>
				<circle fill="#838683" cx="194.7" cy="175.2" r="1.6"/>
			</g>
			<g>
				<path fill="#767A77" d="M231.5,142l5.1-2.9c0.7-0.4,0.8-1.3,0.3-1.8l-4.2-4.2c-0.5-0.5-1.4-0.4-1.8,0.3l-2.9,5.1
					C226.7,140.8,229.2,143.3,231.5,142z"/>
				<circle fill="#3A3B3A" cx="232.6" cy="137.3" r="2.3"/>
				<circle fill="#838683" cx="232.6" cy="137.3" r="1.6"/>
			</g>
		</g>
	</g>
	<g>
		<g>
			<path fill="#F26A29" d="M420.3,98.6l326.8,326.8c0,0-7.4,12.9-24.2,12.9c0,0-47,0-172.7-125.4
				C435.7,198.8,414.1,147.1,420.3,98.6z"/>
			<path fill="#E13D33" d="M420.3,98.6l326.8,326.8c0,0,12.9-7.4,12.9-24.2c0,0,0-47-125.4-172.7C520.5,114,468.8,92.4,420.3,98.6z"
				/>
			<path fill="#BCC2CE" d="M533.1,216.6c-6.3-6.3-16.9-4.2-20.3,4c-5.1,12.1-8.6,29.2,1.9,44.7c13.8,20.2,70.6,69.9,99.4,94.5
				c6.8,5.8,17.3,2.7,20-5.8c1.5-4.9,3.8-10.4,7.1-16.1c2.8-4.9,2-11.1-2-15.1L533.1,216.6z"/>
			<path fill="#7B7C7F" d="M516.8,231.4c-2.4,9.2-2.7,20.1,3.9,29.7c12.5,18.3,63.2,63.1,92.9,88.6c5.1,4.4,13.1,2.5,15.5-3.8
				c1.1-2.9,2.5-5.9,4.1-9c2-3.8,1.3-8.5-1.7-11.6L533.2,227C527.9,221.7,518.7,224.1,516.8,231.4z"/>
			<path fill="#AAB0BB" d="M586.9,193c-15.4-10.5-32.6-7-44.7-1.9c-8.2,3.4-10.3,14.1-4,20.3l106.2,106.2c4,4,10.2,4.8,15.1,2
				c5.8-3.3,11.2-5.6,16.1-7.1c8.6-2.7,11.6-13.2,5.8-20C656.8,263.6,607.1,206.8,586.9,193z"/>
			<path fill="#5A5B5D" d="M582.8,199c-9.7-6.6-20.5-6.4-29.7-3.9c-7.3,1.9-9.7,11.1-4.4,16.4l98.4,98.4c3.1,3.1,7.8,3.7,11.6,1.7
				c3.1-1.6,6.1-3,9-4.1c6.3-2.5,8.2-10.4,3.8-15.5C645.9,262.3,601.1,211.5,582.8,199z"/>
			<path fill="#7B7C7F" d="M642.7,379.1c0,0,4.1-15.2,20.6-37.5l45.7,45.7c0,0-14.1,23-33.9,15.8C675,403,655.7,392.6,642.7,379.1z"
				/>
			<path fill="#5A5B5D" d="M700.7,321c0,0-15.2,4.1-37.5,20.6l45.7,45.7c0,0,23-14.1,15.8-33.9C724.7,353.4,714.2,334,700.7,321z"/>
			<path fill="#BCC2CE" d="M477.8,220.7c0,0-27.2-52.5-26.2-90.8l12.3,12.3C463.9,142.3,460.4,172.6,477.8,220.7z"/>
			<path fill="#AAB0BB" d="M542.4,156.2c0,0-52.5-27.2-90.8-26.2l12.3,12.3C463.9,142.3,494.2,138.7,542.4,156.2z"/>
		</g>
		<g>
			<g>
				<circle fill="#767A77" cx="439.5" cy="156" r="1.5"/>
				<circle fill="#0C090C" cx="439.5" cy="156" r="1.2"/>
			</g>
			<g>
				<circle fill="#767A77" cx="477.5" cy="117.9" r="1.5"/>
				<circle fill="#0C090C" cx="477.5" cy="117.9" r="1.2"/>
			</g>
			<g>
				<circle fill="#767A77" cx="478.4" cy="194.9" r="1.5"/>
				<circle fill="#0C090C" cx="478.4" cy="194.9" r="1.2"/>
			</g>
			<g>
				<circle fill="#767A77" cx="516.5" cy="156.9" r="1.5"/>
				<circle fill="#0C090C" cx="516.5" cy="156.9" r="1.2"/>
			</g>
			<g>
				<path fill="#252426" d="M479.1,195.3c-0.2,0.2-0.4,0.2-0.7,0.2c-0.3-0.1-0.5-0.5-0.4-0.8l17.9-56.3l-56.1,18.2
					c-0.3,0.1-0.7-0.1-0.8-0.4c-0.1-0.3,0.1-0.7,0.4-0.8l57.3-18.6c0.2-0.1,0.5,0,0.7,0.2s0.2,0.4,0.2,0.7l-18.3,57.5
					C479.2,195.2,479.2,195.3,479.1,195.3z"/>
			</g>
			<g>
				<path fill="#252426" d="M517,157.4c-0.1,0.1-0.2,0.1-0.3,0.2l-57.5,18.3c-0.2,0.1-0.5,0-0.7-0.2c-0.2-0.2-0.2-0.4-0.2-0.7
					l18.6-57.3c0.1-0.3,0.5-0.5,0.8-0.4c0.3,0.1,0.5,0.5,0.4,0.8L460,174.2l56.3-17.9c0.3-0.1,0.7,0.1,0.8,0.4
					C517.2,157,517.2,157.3,517,157.4z"/>
			</g>
			<g>
				<path fill="#767A77" d="M460.2,170.6l-5.1,2.9c-0.7,0.4-0.8,1.3-0.3,1.8l4.2,4.2c0.5,0.5,1.4,0.4,1.8-0.3l2.9-5.1
					C464.9,171.8,462.4,169.3,460.2,170.6z"/>
				<circle fill="#3A3B3A" cx="459" cy="175.2" r="2.3"/>
				<circle fill="#838683" cx="459" cy="175.2" r="1.6"/>
			</g>
			<g>
				<path fill="#767A77" d="M495.7,142l5.1-2.9c0.7-0.4,0.8-1.3,0.3-1.8l-4.2-4.2c-0.5-0.5-1.4-0.4-1.8,0.3l-2.9,5.1
					C491,140.8,493.5,143.3,495.7,142z"/>
				<circle fill="#3A3B3A" cx="496.9" cy="137.3" r="2.3"/>
				<circle fill="#838683" cx="496.9" cy="137.3" r="1.6"/>
			</g>
		</g>
	</g>
	<g>
		<g>
			<path fill="#FDB515" d="M670.2,98.6l326.8,326.8c0,0-7.4,12.9-24.2,12.9c0,0-47,0-172.7-125.4C685.6,198.8,664,147.1,670.2,98.6z
				"/>
			<path fill="#F5841F" d="M670.2,98.6l326.8,326.8c0,0,12.9-7.4,12.9-24.2c0,0,0-47-125.4-172.7C770.4,114,718.7,92.4,670.2,98.6z"
				/>
			<g>
				<path fill="#7B7C7F" d="M820,307.6c5,5,9.8,9.7,14.5,14.2l8.4-50.5l-129-129C711.4,178.1,729.8,217.6,820,307.6z"/>
				<path fill="#5A5B5D" d="M954.2,408.6c12.5,0.7,17.5-8.5,17.5-8.5l-74.8-74.8l-14.3,39.7C934.4,407.4,954.2,408.6,954.2,408.6z"
					/>
				<path fill="#7B7C7F" d="M864.3,349.3l8.1-48.6l-5-5l-15.3,42.5C856.3,342.2,860.4,345.9,864.3,349.3z"/>
			</g>
			<g>
				<path fill="#414042" d="M896.8,325.2l74.8,74.8c0,0,9.3-5,8.5-17.5c0,0-1.2-19.8-43.7-71.6L896.8,325.2z"/>
				<path fill="#5A5B5D" d="M879.2,248.4c-90-90.3-129.5-108.6-165.3-106.1l129,129l50.5-8.4C888.9,258.3,884.2,253.4,879.2,248.4z"
					/>
				<path fill="#5A5B5D" d="M909.9,280.5l-42.5,15.3l5,5l48.6-8.1C917.5,288.8,913.8,284.7,909.9,280.5z"/>
			</g>
		</g>
		<g>
			<g>
				<circle fill="#767A77" cx="689.4" cy="156" r="1.5"/>
				<circle fill="#0C090C" cx="689.4" cy="156" r="1.2"/>
			</g>
			<g>
				<circle fill="#767A77" cx="727.4" cy="117.9" r="1.5"/>
				<circle fill="#0C090C" cx="727.4" cy="117.9" r="1.2"/>
			</g>
			<g>
				<circle fill="#767A77" cx="728.4" cy="194.9" r="1.5"/>
				<circle fill="#0C090C" cx="728.4" cy="194.9" r="1.2"/>
			</g>
			<g>
				<circle fill="#767A77" cx="766.4" cy="156.9" r="1.5"/>
				<circle fill="#0C090C" cx="766.4" cy="156.9" r="1.2"/>
			</g>
			<g>
				<path fill="#252426" d="M729,195.3c-0.2,0.2-0.4,0.2-0.7,0.2c-0.3-0.1-0.5-0.5-0.4-0.8l17.9-56.3l-56.1,18.2
					c-0.3,0.1-0.7-0.1-0.8-0.4c-0.1-0.3,0.1-0.7,0.4-0.8l57.3-18.6c0.2-0.1,0.5,0,0.7,0.2c0.2,0.2,0.2,0.4,0.2,0.7l-18.3,57.5
					C729.1,195.2,729.1,195.3,729,195.3z"/>
			</g>
			<g>
				<path fill="#252426" d="M766.9,157.4c-0.1,0.1-0.2,0.1-0.3,0.2l-57.5,18.3c-0.2,0.1-0.5,0-0.7-0.2c-0.2-0.2-0.2-0.4-0.2-0.7
					l18.6-57.3c0.1-0.3,0.5-0.5,0.8-0.4c0.3,0.1,0.5,0.5,0.4,0.8l-18.2,56.1l56.3-17.9c0.3-0.1,0.7,0.1,0.8,0.4
					C767.2,157,767.1,157.3,766.9,157.4z"/>
			</g>
			<g>
				<path fill="#767A77" d="M710.1,170.6l-5.1,2.9c-0.7,0.4-0.8,1.3-0.3,1.8l4.2,4.2c0.5,0.5,1.4,0.4,1.8-0.3l2.9-5.1
					C714.9,171.8,712.4,169.3,710.1,170.6z"/>
				<circle fill="#3A3B3A" cx="708.9" cy="175.2" r="2.3"/>
				<circle fill="#838683" cx="708.9" cy="175.2" r="1.6"/>
			</g>
			<g>
				<path fill="#767A77" d="M745.7,142l5.1-2.9c0.7-0.4,0.8-1.3,0.3-1.8l-4.2-4.2c-0.5-0.5-1.4-0.4-1.8,0.3l-2.9,5.1
					C740.9,140.8,743.4,143.3,745.7,142z"/>
				<circle fill="#3A3B3A" cx="746.8" cy="137.3" r="2.3"/>
				<circle fill="#838683" cx="746.8" cy="137.3" r="1.6"/>
			</g>
		</g>
	</g>
	<g>
		<g>
			<path fill="#1BA1DB" d="M905.2,98.6L1232,425.5c0,0-7.4,12.9-24.2,12.9c0,0-47,0-172.7-125.4C920.6,198.8,899,147.1,905.2,98.6z"
				/>
			<path fill="#0477BE" d="M905.2,98.6L1232,425.5c0,0,12.9-7.4,12.9-24.2c0,0,0-47-125.4-172.7C1005.4,114,953.7,92.4,905.2,98.6z"
				/>
			<path fill="#5A5B5D" d="M1009,202.4c0,0-25.5,32.9-6.8,60.3c18.6,27.3,116.2,108.7,116.2,108.7s-1.3-21.1,15.5-44.1L1009,202.4z"
				/>
			<path fill="#414042" d="M1009,202.4c0,0,32.9-25.5,60.3-6.8c27.3,18.6,108.7,116.2,108.7,116.2s-21.1-1.3-44.1,15.5L1009,202.4z"
				/>
			<path fill="#BCC2CE" d="M1127.6,379.1c0,0,4.1-15.2,20.6-37.5l45.7,45.7c0,0-14.1,23-33.9,15.8
				C1159.9,403,1140.6,392.6,1127.6,379.1z"/>
			<path fill="#AAB0BB" d="M1185.6,321c0,0-15.2,4.1-37.5,20.6l45.7,45.7c0,0,23-14.1,15.8-33.9C1209.6,353.4,1199.1,334,1185.6,321
				z"/>
		</g>
		<g>
			<g>
				<circle fill="#767A77" cx="924.4" cy="156" r="1.5"/>
				<circle fill="#0C090C" cx="924.4" cy="156" r="1.2"/>
			</g>
			<g>
				<circle fill="#767A77" cx="962.4" cy="117.9" r="1.5"/>
				<circle fill="#0C090C" cx="962.4" cy="117.9" r="1.2"/>
			</g>
			<g>
				<circle fill="#767A77" cx="963.3" cy="194.9" r="1.5"/>
				<circle fill="#0C090C" cx="963.3" cy="194.9" r="1.2"/>
			</g>
			<g>
				<circle fill="#767A77" cx="1001.4" cy="156.9" r="1.5"/>
				<circle fill="#0C090C" cx="1001.4" cy="156.9" r="1.2"/>
			</g>
			<g>
				<path fill="#252426" d="M964,195.3c-0.2,0.2-0.4,0.2-0.7,0.2c-0.3-0.1-0.5-0.5-0.4-0.8l17.9-56.3l-56.1,18.2
					c-0.3,0.1-0.7-0.1-0.8-0.4c-0.1-0.3,0.1-0.7,0.4-0.8l57.3-18.6c0.2-0.1,0.5,0,0.7,0.2c0.2,0.2,0.2,0.4,0.2,0.7l-18.3,57.5
					C964.1,195.2,964,195.3,964,195.3z"/>
			</g>
			<g>
				<path fill="#252426" d="M1001.9,157.4c-0.1,0.1-0.2,0.1-0.3,0.2l-57.5,18.3c-0.2,0.1-0.5,0-0.7-0.2c-0.2-0.2-0.2-0.4-0.2-0.7
					l18.6-57.3c0.1-0.3,0.5-0.5,0.8-0.4c0.3,0.1,0.5,0.5,0.4,0.8l-18.2,56.1l56.3-17.9c0.3-0.1,0.7,0.1,0.8,0.4
					C1002.1,157,1002.1,157.3,1001.9,157.4z"/>
			</g>
			<g>
				<path fill="#767A77" d="M945,170.6l-5.1,2.9c-0.7,0.4-0.8,1.3-0.3,1.8l4.2,4.2c0.5,0.5,1.4,0.4,1.8-0.3l2.9-5.1
					C949.8,171.8,947.3,169.3,945,170.6z"/>
				<circle fill="#3A3B3A" cx="943.9" cy="175.2" r="2.3"/>
				<circle fill="#838683" cx="943.9" cy="175.2" r="1.6"/>
			</g>
			<g>
				<path fill="#767A77" d="M980.6,142l5.1-2.9c0.7-0.4,0.8-1.3,0.3-1.8l-4.2-4.2c-0.5-0.5-1.4-0.4-1.8,0.3l-2.9,5.1
					C975.9,140.8,978.4,143.3,980.6,142z"/>
				<circle fill="#3A3B3A" cx="981.8" cy="137.3" r="2.3"/>
				<circle fill="#838683" cx="981.8" cy="137.3" r="1.6"/>
			</g>
		</g>
	</g>
	<g>
		<g>
			<g>
				<path fill="#265798" d="M147.9,545.3c-5.2,28.3,13.9,77.6,70.2,145.6c66.8,80.6,227.4,191.5,227.4,191.5
					c21.4,0,40.2-18.1,40.2-18.1l0,0L154.4,532.9C151.1,536.2,148.7,540.5,147.9,545.3z"/>
				<path fill="#204C87" d="M312.4,596.6c-68-56.3-117.3-75.5-145.6-70.2c-4.8,0.9-9.1,3.2-12.4,6.5l331.4,331.4
					c0,0,18.1-18.8,18.1-40.2C503.8,824,393,663.4,312.4,596.6z"/>
			</g>
			<g>
				<path fill="#00B5EC" d="M148.6,544.6c-4,27,16.3,75.2,73.1,142.7c67.3,80.1,226.1,192.8,226.1,192.8c20.6,0.8,38-15.9,38-15.9
					l0,0L154.4,532.9C151.3,535.9,149.2,540,148.6,544.6z"/>
				<path fill="#0092D3" d="M308.8,600.2c-67.6-56.8-115.7-77-142.7-73.1c-4.6,0.7-8.6,2.7-11.7,5.8l331.4,331.4
					c0,0,16.7-17.4,15.9-38C501.6,826.3,388.9,667.5,308.8,600.2z"/>
			</g>
			<path fill="#5A5B5D" d="M273.3,692.4l-0.6,5.6c-2.1,20.5,5.9,40.7,21.3,54.3l57.6,50.8c9.4,8.3,24.1,1.7,24.2-10.8l0.2-24.8
				c0-3.9-1.5-7.6-4.3-10.4l-73.6-73.6C289.4,674.8,274.6,680.1,273.3,692.4z"/>
			<path fill="#414042" d="M319.5,651.3l-5.6,0.6c-12.2,1.2-17.5,16.1-8.8,24.8l73.6,73.6c2.8,2.8,6.5,4.3,10.4,4.3l24.8-0.2
				c12.5-0.1,19.1-14.8,10.8-24.2l-50.8-57.6C360.2,657.2,339.9,649.2,319.5,651.3z"/>
		</g>
		<g>
			<path fill="#E3E6DD" d="M210.1,643.2c15.1,15.1,39.5,15.1,54.6,0l-54.6-54.6C195,603.7,195,628.1,210.1,643.2z"/>
			<path fill="#CED2CA" d="M210.1,588.6l54.6,54.6c15.1-15.1,15.1-39.5,0-54.6C249.6,573.5,225.1,573.5,210.1,588.6z"/>
		</g>
		<polygon fill="#E3E6DD" points="192.5,615.7 191.9,570.5 177.7,556.3 		"/>
		<polygon fill="#CED2CA" points="237.1,571 191.9,570.5 177.7,556.3 		"/>
		<g>
			<g>
				<circle fill="#767A77" cx="181.3" cy="598" r="1.5"/>
				<circle fill="#0C090C" cx="181.3" cy="598" r="1.2"/>
			</g>
			<g>
				<circle fill="#767A77" cx="219.3" cy="560" r="1.5"/>
				<circle fill="#0C090C" cx="219.3" cy="560" r="1.2"/>
			</g>
			<g>
				<circle fill="#767A77" cx="220.3" cy="637" r="1.5"/>
				<circle fill="#0C090C" cx="220.3" cy="637" r="1.2"/>
			</g>
			<g>
				<circle fill="#767A77" cx="258.3" cy="598.9" r="1.5"/>
				<circle fill="#0C090C" cx="258.3" cy="598.9" r="1.2"/>
			</g>
			<g>
				<path fill="#252426" d="M220.9,637.4c-0.2,0.2-0.4,0.2-0.7,0.2c-0.3-0.1-0.5-0.5-0.4-0.8l17.9-56.3l-56.1,18.2
					c-0.3,0.1-0.7-0.1-0.8-0.4c-0.1-0.3,0.1-0.7,0.4-0.8l57.3-18.6c0.2-0.1,0.5,0,0.7,0.2c0.2,0.2,0.2,0.4,0.2,0.7l-18.3,57.5
					C221,637.2,221,637.3,220.9,637.4z"/>
			</g>
			<g>
				<path fill="#252426" d="M258.8,599.5c-0.1,0.1-0.2,0.1-0.3,0.2L201,617.9c-0.2,0.1-0.5,0-0.7-0.2c-0.2-0.2-0.2-0.4-0.2-0.7
					l18.6-57.3c0.1-0.3,0.5-0.5,0.8-0.4c0.3,0.1,0.5,0.5,0.4,0.8l-18.2,56.1l56.3-17.9c0.3-0.1,0.7,0.1,0.8,0.4
					C259,599,259,599.3,258.8,599.5z"/>
			</g>
			<g>
				<path fill="#767A77" d="M202,612.6l-5.1,2.9c-0.7,0.4-0.8,1.3-0.3,1.8l4.2,4.2c0.5,0.5,1.4,0.4,1.8-0.3l2.9-5.1
					C206.8,613.9,204.2,611.3,202,612.6z"/>
				<circle fill="#3A3B3A" cx="200.8" cy="617.3" r="2.3"/>
				<circle fill="#838683" cx="200.8" cy="617.3" r="1.6"/>
			</g>
			<g>
				<path fill="#767A77" d="M237.6,584.1l5.1-2.9c0.7-0.4,0.8-1.3,0.3-1.8l-4.2-4.2c-0.5-0.5-1.4-0.4-1.8,0.3l-2.9,5.1
					C232.8,582.8,235.3,585.3,237.6,584.1z"/>
				<circle fill="#3A3B3A" cx="238.7" cy="579.4" r="2.3"/>
				<circle fill="#838683" cx="238.7" cy="579.4" r="1.6"/>
			</g>
		</g>
	</g>
	<g>
		<g>
			<g>
				<path fill="#CE431D" d="M412.1,545.3c-5.2,28.3,13.9,77.6,70.2,145.6c66.8,80.6,227.4,191.5,227.4,191.5
					c21.4,0,40.2-18.1,40.2-18.1l0,0L418.6,532.9C415.3,536.2,413,540.5,412.1,545.3z"/>
				<path fill="#B43A16" d="M576.6,596.6c-68-56.3-117.3-75.5-145.6-70.2c-4.8,0.9-9.1,3.2-12.4,6.5L750,864.2
					c0,0,18.1-18.8,18.1-40.2C768.1,824,657.3,663.4,576.6,596.6z"/>
			</g>
			<g>
				<path fill="#FDB515" d="M412.8,544.6c-4,27,16.3,75.2,73.1,142.7C553.2,767.4,712,880.1,712,880.1c20.6,0.8,38-15.9,38-15.9l0,0
					L418.6,532.9C415.6,535.9,413.5,540,412.8,544.6z"/>
				<path fill="#F7941E" d="M573.1,600.2c-67.6-56.8-115.7-77-142.7-73.1c-4.6,0.7-8.6,2.7-11.7,5.8L750,864.2
					c0,0,16.7-17.4,15.9-38C765.9,826.3,653.2,667.5,573.1,600.2z"/>
			</g>
		</g>
		<g>
			<g>
				<path fill="#E3E6DD" d="M496.4,652.5c0.7,2.7,1.6,5.5,2.7,8.5c7,19.6,20,41.5,38.5,65.1c11.3,14.4,27.1,29.8,44.5,44.8
					c5,4.3,13.5-0.1,13.8-7.1l1.6-35.7c0.1-2.1-0.6-4.1-2-5.5l-81.6-81.6C506.8,634,493.7,642.5,496.4,652.5z"/>
				<path fill="#67686B" d="M590.7,767.2c-1.6,1.6-4.4,2.4-6.2,0.9c-19-16.4-33.8-31.3-44-44.3c-18.3-23.2-31-44.8-37.9-64.1
					c-1-2.8-1.9-5.6-2.6-8.3c-0.9-3.4,1.1-6,2.1-6.9c2.5-2.5,6.6-3.7,9.3-1l81.6,81.6c0.7,0.7,1,1.6,1,2.7l-1.6,35.7
					C592.2,765.3,591.4,766.5,590.7,767.2C590.7,767.2,590.7,767.2,590.7,767.2z"/>
				<path fill="#CED2CA" d="M611.9,651.8c-23.5-18.5-45.4-31.4-65.1-38.5c-3-1.1-5.8-2-8.5-2.7c-10-2.8-18.5,10.4-11.4,17.5
					l81.6,81.6c1.4,1.4,3.4,2.1,5.5,2l35.7-1.6c7-0.3,11.4-8.8,7.1-13.8C641.6,678.9,626.2,663.1,611.9,651.8z"/>
				<path fill="#333334" d="M653,704.9c-0.7,0.7-1.9,1.6-3.6,1.6l-35.7,1.6c-1.1,0-2-0.3-2.7-1l-81.6-81.6c-2.7-2.7-1.5-6.8,1-9.3
					c0.9-0.9,3.5-3,6.9-2.1c2.7,0.7,5.5,1.6,8.3,2.6c19.3,6.9,40.8,19.6,64.1,37.9c13,10.2,27.9,25,44.3,44
					C655.4,700.5,654.6,703.3,653,704.9L653,704.9z"/>
			</g>
			<g>
				<path fill="#E3E6DD" d="M605.6,747.5l3.2,17.8c3.4,18.9,13.9,35.9,29.3,47.3c26.4,19.7,48.9,35.1,59.2,42
					c2.7,1.8,6.1,2.3,9.2,1.3c0,0,0.1,0,0.1,0c7.6-2.5,9.9-12.2,4.2-17.9l-95.6-95.6C611.3,738.4,604.6,741.9,605.6,747.5z"/>
				<path fill="#67686B" d="M708.3,850.7c-0.8,0.8-1.7,1.4-2.8,1.7l-0.1,0c-2.1,0.7-4.3,0.3-6.1-0.9c-10.9-7.3-33-22.5-59-41.9
					c-14.8-11-24.7-27-27.9-45.1l-3.2-17.8c-0.1-0.7,0-1.3,0.5-1.8c0.6-0.6,1.9-1.1,3,0l95.6,95.6c1.4,1.4,2.1,3.2,2.1,5.2
					C710.4,847.6,709.6,849.5,708.3,850.7C708.3,850.7,708.3,850.7,708.3,850.7z"/>
				<path fill="#CED2CA" d="M651,723l-17.8-3.2c-5.5-1-9,5.7-5.1,9.7l95.6,95.6c5.6,5.6,15.4,3.5,17.9-4.1c0,0,0-0.1,0-0.1
					c1-3.2,0.5-6.6-1.3-9.4c-6.9-10.2-22.3-32.7-41.9-59.1C686.9,737,670,726.4,651,723z"/>
				<path fill="#333334" d="M736.5,822.6c-2.4,2.4-7,3.1-10.1-0.1l-95.6-95.6c-1.1-1.1-0.6-2.4,0-3c0.5-0.5,1.1-0.7,1.8-0.5
					l17.8,3.2c18.1,3.2,34.1,13.2,45.1,28c19.4,26,34.5,48.1,41.8,59c1.2,1.8,1.6,4.1,0.9,6.2l0,0.1
					C737.8,820.9,737.3,821.8,736.5,822.6C736.5,822.6,736.5,822.6,736.5,822.6z"/>
			</g>
		</g>
		<path fill="#E3E6DD" d="M481.2,660.3c0,0-22.1-39.8-8.8-73.7l-32.5-32.5C439.9,554.1,440.8,612,481.2,660.3z"/>
		<path fill="#CED2CA" d="M546,595.4c0,0-39.8-22.1-73.7-8.8l-32.5-32.5C439.9,554.1,497.8,555,546,595.4z"/>
		<g>
			<g>
				<circle fill="#767A77" cx="445.5" cy="597.9" r="1.5"/>
				<circle fill="#0C090C" cx="445.5" cy="597.9" r="1.2"/>
			</g>
			<g>
				<circle fill="#767A77" cx="483.5" cy="559.9" r="1.5"/>
				<circle fill="#0C090C" cx="483.5" cy="559.9" r="1.2"/>
			</g>
			<g>
				<circle fill="#767A77" cx="484.5" cy="636.9" r="1.5"/>
				<circle fill="#0C090C" cx="484.5" cy="636.9" r="1.2"/>
			</g>
			<g>
				<circle fill="#767A77" cx="522.5" cy="598.8" r="1.5"/>
				<circle fill="#0C090C" cx="522.5" cy="598.8" r="1.2"/>
			</g>
			<g>
				<path fill="#252426" d="M485.1,637.3c-0.2,0.2-0.4,0.2-0.7,0.2c-0.3-0.1-0.5-0.5-0.4-0.8l17.9-56.3l-56.1,18.2
					c-0.3,0.1-0.7-0.1-0.8-0.4c-0.1-0.3,0.1-0.7,0.4-0.8l57.3-18.6c0.2-0.1,0.5,0,0.7,0.2c0.2,0.2,0.2,0.4,0.2,0.7L485.3,637
					C485.2,637.1,485.2,637.2,485.1,637.3z"/>
			</g>
			<g>
				<path fill="#252426" d="M523,599.4c-0.1,0.1-0.2,0.1-0.3,0.2l-57.5,18.3c-0.2,0.1-0.5,0-0.7-0.2c-0.2-0.2-0.2-0.4-0.2-0.7
					l18.6-57.3c0.1-0.3,0.5-0.5,0.8-0.4c0.3,0.1,0.5,0.5,0.4,0.8L466,616.2l56.3-17.9c0.3-0.1,0.7,0.1,0.8,0.4
					C523.3,598.9,523.2,599.2,523,599.4z"/>
			</g>
			<g>
				<path fill="#767A77" d="M466.2,612.5l-5.1,2.9c-0.7,0.4-0.8,1.3-0.3,1.8l4.2,4.2c0.5,0.5,1.4,0.4,1.8-0.3l2.9-5.1
					C471,613.7,468.4,611.2,466.2,612.5z"/>
				<circle fill="#3A3B3A" cx="465" cy="617.2" r="2.3"/>
				<circle fill="#838683" cx="465" cy="617.2" r="1.6"/>
			</g>
			<g>
				<path fill="#767A77" d="M501.8,583.9l5.1-2.9c0.7-0.4,0.8-1.3,0.3-1.8l-4.2-4.2c-0.5-0.5-1.4-0.4-1.8,0.3l-2.9,5.1
					C497,582.7,499.5,585.2,501.8,583.9z"/>
				<circle fill="#3A3B3A" cx="502.9" cy="579.3" r="2.3"/>
				<circle fill="#838683" cx="502.9" cy="579.3" r="1.6"/>
			</g>
		</g>
	</g>
	<g>
		<g>
			<g>
				<path fill="#39B54A" d="M662.1,545.3c-5.2,28.3,13.9,77.6,70.2,145.6c66.8,80.6,227.4,191.5,227.4,191.5
					c21.4,0,40.2-18.1,40.2-18.1l0,0L668.6,532.9C665.3,536.2,662.9,540.5,662.1,545.3z"/>
				<path fill="#009444" d="M826.6,596.6c-68-56.3-117.3-75.5-145.6-70.2c-4.8,0.9-9.1,3.2-12.4,6.5l331.4,331.4
					c0,0,18.1-18.8,18.1-40.2C1018,824,907.2,663.4,826.6,596.6z"/>
			</g>
			<g>
				<path fill="#D7DF23" d="M662.8,544.6c-4,27,16.3,75.2,73.1,142.7c67.3,80.1,226.1,192.8,226.1,192.8c20.6,0.8,38-15.9,38-15.9
					l0,0L668.6,532.9C665.5,535.9,663.4,540,662.8,544.6z"/>
				<path fill="#5A5B5D" d="M983.1,860.3c-5.1,3.7-12.3,7.9-19.6,9.3c-15.8-10.2-127.3-83.1-172.4-140
					c-19.5-24.5-33.2-47.2-40.9-67.5c-7.4-19.5-7.5-32.6-5.9-40.6L983.1,860.3z"/>
				<path fill="#8DC63F" d="M823,600.2c-67.6-56.8-115.7-77-142.7-73.1c-4.6,0.7-8.6,2.7-11.7,5.8l331.4,331.4
					c0,0,16.7-17.4,15.9-38C1015.8,826.3,903.1,667.5,823,600.2z"/>
				<path fill="#414042" d="M757.2,608.6c8-1.6,21.1-1.5,40.6,5.9c20.3,7.6,43,21.4,67.5,40.9c56.8,45.2,129.7,156.6,140,172.4
					c-1.4,7.3-5.6,14.5-9.3,19.6L757.2,608.6z"/>
			</g>
		</g>
		<g>
			<g>
				<circle fill="#767A77" cx="691.5" cy="593.9" r="1.5"/>
				<circle fill="#0C090C" cx="691.5" cy="593.9" r="1.2"/>
			</g>
			<g>
				<circle fill="#767A77" cx="729.5" cy="555.9" r="1.5"/>
				<circle fill="#0C090C" cx="729.5" cy="555.9" r="1.2"/>
			</g>
			<g>
				<circle fill="#767A77" cx="730.4" cy="632.9" r="1.5"/>
				<circle fill="#0C090C" cx="730.4" cy="632.9" r="1.2"/>
			</g>
			<g>
				<circle fill="#767A77" cx="768.5" cy="594.9" r="1.5"/>
				<circle fill="#0C090C" cx="768.5" cy="594.9" r="1.2"/>
			</g>
			<g>
				<path fill="#252426" d="M731.1,633.3c-0.2,0.2-0.4,0.2-0.7,0.2c-0.3-0.1-0.5-0.5-0.4-0.8l17.9-56.3l-56.1,18.2
					c-0.3,0.1-0.7-0.1-0.8-0.4c-0.1-0.3,0.1-0.7,0.4-0.8l57.3-18.6c0.2-0.1,0.5,0,0.7,0.2c0.2,0.2,0.2,0.4,0.2,0.7L731.2,633
					C731.2,633.1,731.1,633.2,731.1,633.3z"/>
			</g>
			<g>
				<path fill="#252426" d="M769,595.4c-0.1,0.1-0.2,0.1-0.3,0.2l-57.5,18.3c-0.2,0.1-0.5,0-0.7-0.2c-0.2-0.2-0.2-0.4-0.2-0.7
					l18.6-57.3c0.1-0.3,0.5-0.5,0.8-0.4s0.5,0.5,0.4,0.8L712,612.2l56.3-17.9c0.3-0.1,0.7,0.1,0.8,0.4
					C769.2,595,769.1,595.2,769,595.4z"/>
			</g>
			<g>
				<path fill="#767A77" d="M712.1,608.5l-5.1,2.9c-0.7,0.4-0.8,1.3-0.3,1.8l4.2,4.2c0.5,0.5,1.4,0.4,1.8-0.3l2.9-5.1
					C716.9,609.8,714.4,607.3,712.1,608.5z"/>
				<circle fill="#3A3B3A" cx="711" cy="613.2" r="2.3"/>
				<circle fill="#838683" cx="711" cy="613.2" r="1.6"/>
			</g>
			<g>
				<path fill="#767A77" d="M747.7,580l5.1-2.9c0.7-0.4,0.8-1.3,0.3-1.8l-4.2-4.2c-0.5-0.5-1.4-0.4-1.8,0.3l-2.9,5.1
					C742.9,578.7,745.5,581.2,747.7,580z"/>
				<circle fill="#3A3B3A" cx="748.9" cy="575.3" r="2.3"/>
				<circle fill="#838683" cx="748.9" cy="575.3" r="1.6"/>
			</g>
		</g>
	</g>
	<g>
		<g>
			<g>
				<path fill="#C51F67" d="M897,545.3c-5.2,28.3,13.9,77.6,70.2,145.6c66.8,80.6,227.4,191.5,227.4,191.5
					c21.4,0,40.2-18.1,40.2-18.1l0,0L903.5,532.9C900.2,536.2,897.9,540.5,897,545.3z"/>
				<path fill="#B2185C" d="M1061.5,596.6c-68-56.3-117.3-75.5-145.6-70.2c-4.8,0.9-9.1,3.2-12.4,6.5l331.4,331.4
					c0,0,18.1-18.8,18.1-40.2C1253,824,1142.2,663.4,1061.5,596.6z"/>
			</g>
			<g>
				<path fill="#F27292" d="M897.7,544.6c-4,27,16.3,75.2,73.1,142.7c67.3,80.1,226.1,192.8,226.1,192.8c20.6,0.8,38-15.9,38-15.9
					l0,0L903.5,532.9C900.5,535.9,898.4,540,897.7,544.6z"/>
				<path fill="#EE2A7B" d="M1057.9,600.2c-67.6-56.8-115.7-77-142.7-73.1c-4.6,0.7-8.6,2.7-11.7,5.8l331.4,331.4
					c0,0,16.7-17.4,15.9-38C1250.8,826.3,1138.1,667.5,1057.9,600.2z"/>
			</g>
			<polygon fill="#E3E6DD" points="921.1,550.4 969.2,674.2 978,607.4 			"/>
			<polygon fill="#AAB0BB" points="921.1,550.4 1044.9,598.5 978,607.4 			"/>
			<path fill="#5A5B5D" d="M1024.6,702c-1.6,15.8,4.5,31.4,16.5,42l87.1,76.9l0.4-62.8l-99.6-99.6L1024.6,702z"/>
			<path fill="#414042" d="M1072.6,654l-43.6,4.4l99.6,99.6l62.8-0.4l-76.9-87.1C1104.1,658.5,1088.4,652.4,1072.6,654z"/>
			<path fill="#5A5B5D" d="M1139.3,827.9l9.2,7.4c7.3,5.8,17.3,6.8,25.6,2.5l22.6-11.6l-53.4-53.4L1139.3,827.9z"/>
			<path fill="#414042" d="M1198.5,768.6l7.4,9.2c5.8,7.3,6.8,17.3,2.5,25.6l-11.6,22.6l-53.4-53.4L1198.5,768.6z"/>
		</g>
		<g>
			<g>
				<circle fill="#767A77" cx="926.4" cy="593.9" r="1.5"/>
				<circle fill="#0C090C" cx="926.4" cy="593.9" r="1.2"/>
			</g>
			<g>
				<circle fill="#767A77" cx="964.5" cy="555.9" r="1.5"/>
				<circle fill="#0C090C" cx="964.5" cy="555.9" r="1.2"/>
			</g>
			<g>
				<circle fill="#767A77" cx="965.4" cy="632.9" r="1.5"/>
				<circle fill="#0C090C" cx="965.4" cy="632.9" r="1.2"/>
			</g>
			<g>
				<circle fill="#767A77" cx="1003.4" cy="594.9" r="1.5"/>
				<circle fill="#0C090C" cx="1003.4" cy="594.9" r="1.2"/>
			</g>
			<g>
				<path fill="#252426" d="M966,633.3c-0.2,0.2-0.4,0.2-0.7,0.2c-0.3-0.1-0.5-0.5-0.4-0.8l17.9-56.3l-56.1,18.2
					c-0.3,0.1-0.7-0.1-0.8-0.4c-0.1-0.3,0.1-0.7,0.4-0.8l57.3-18.6c0.2-0.1,0.5,0,0.7,0.2s0.2,0.4,0.2,0.7L966.2,633
					C966.2,633.1,966.1,633.2,966,633.3z"/>
			</g>
			<g>
				<path fill="#252426" d="M1003.9,595.4c-0.1,0.1-0.2,0.1-0.3,0.2l-57.5,18.3c-0.2,0.1-0.5,0-0.7-0.2c-0.2-0.2-0.2-0.4-0.2-0.7
					l18.6-57.3c0.1-0.3,0.5-0.5,0.8-0.4s0.5,0.5,0.4,0.8L947,612.2l56.3-17.9c0.3-0.1,0.7,0.1,0.8,0.4
					C1004.2,595,1004.1,595.2,1003.9,595.4z"/>
			</g>
			<g>
				<path fill="#767A77" d="M947.1,608.5l-5.1,2.9c-0.7,0.4-0.8,1.3-0.3,1.8l4.2,4.2c0.5,0.5,1.4,0.4,1.8-0.3l2.9-5.1
					C951.9,609.8,949.4,607.3,947.1,608.5z"/>
				<circle fill="#3A3B3A" cx="945.9" cy="613.2" r="2.3"/>
				<circle fill="#838683" cx="945.9" cy="613.2" r="1.6"/>
			</g>
			<g>
				<path fill="#767A77" d="M982.7,580l5.1-2.9c0.7-0.4,0.8-1.3,0.3-1.8l-4.2-4.2c-0.5-0.5-1.4-0.4-1.8,0.3l-2.9,5.1
					C977.9,578.7,980.4,581.3,982.7,580z"/>
				<circle fill="#3A3B3A" cx="983.9" cy="575.3" r="2.3"/>
				<circle fill="#838683" cx="983.9" cy="575.3" r="1.6"/>
			</g>
		</g>
	</g>
</g>
</svg>
